StickSans_Black#1.ufo
<glyph name="exclam" format="2">
  <advance width="260"/>
  <unicode hex="0021"/>
  <outline>
    <contour>
      <point x="73" y="219" type="line"/>
      <point x="187" y="219" type="line"/>
      <point x="205" y="697" type="line"/>
      <point x="56" y="697" type="line"/>
    </contour>
    <contour>
      <point x="52" y="0" type="line"/>
      <point x="208" y="0" type="line"/>
      <point x="208" y="142" type="line"/>
      <point x="52" y="142" type="line"/>
    </contour>
  </outline>
</glyph>
<glyph name="quotedbl" format="2">
  <advance width="467"/>
  <unicode hex="0022"/>
  <outline>
    <contour>
      <point x="270" y="407" type="line"/>
      <point x="397" y="407" type="line"/>
      <point x="397" y="697" type="line"/>
      <point x="270" y="697" type="line"/>
    </contour>
    <contour>
      <point x="70" y="407" type="line"/>
      <point x="196" y="407" type="line"/>
      <point x="196" y="697" type="line"/>
      <point x="70" y="697" type="line"/>
    </contour>
  </outline>
</glyph>
<glyph name="numbersign" format="2">
  <advance width="691"/>
  <unicode hex="0023"/>
  <outline>
    <contour>
      <point x="106" y="0" type="line"/>
      <point x="223" y="0" type="line"/>
      <point x="265" y="200" type="line"/>
      <point x="360" y="200" type="line"/>
      <point x="316" y="0" type="line"/>
      <point x="433" y="0" type="line"/>
      <point x="477" y="200" type="line"/>
      <point x="613" y="200" type="line"/>
      <point x="613" y="306" type="line"/>
      <point x="499" y="306" type="line"/>
      <point x="521" y="400" type="line"/>
      <point x="653" y="400" type="line"/>
      <point x="653" y="506" type="line"/>
      <point x="543" y="506" type="line"/>
      <point x="589" y="697" type="line"/>
      <point x="470" y="697" type="line"/>
      <point x="428" y="506" type="line"/>
      <point x="334" y="506" type="line"/>
      <point x="379" y="697" type="line"/>
      <point x="260" y="697" type="line"/>
      <point x="215" y="511" type="line"/>
      <point x="79" y="511" type="line"/>
      <point x="79" y="400" type="line"/>
      <point x="192" y="400" type="line"/>
      <point x="172" y="306" type="line"/>
      <point x="39" y="306" type="line"/>
      <point x="39" y="200" type="line"/>
      <point x="150" y="200" type="line"/>
    </contour>
    <contour>
      <point x="291" y="306" type="line"/>
      <point x="309" y="400" type="line"/>
      <point x="403" y="400" type="line"/>
      <point x="385" y="306" type="line"/>
    </contour>
  </outline>
</glyph>
<glyph name="dollar" format="2">
  <advance width="560"/>
  <unicode hex="0024"/>
  <outline>
    <contour>
      <point x="229" y="-118" type="line"/>
      <point x="341" y="-118" type="line"/>
      <point x="341" y="55" type="line"/>
      <point x="229" y="55" type="line"/>
    </contour>
    <contour>
      <point x="229" y="636" type="line"/>
      <point x="341" y="636" type="line"/>
      <point x="341" y="808" type="line"/>
      <point x="229" y="808" type="line"/>
    </contour>
    <component base="S" xOffset="-10"/>
  </outline>
</glyph>
<glyph name="quotesingle" format="2">
  <advance width="267"/>
  <unicode hex="0027"/>
  <outline>
    <contour>
      <point x="70" y="407" type="line"/>
      <point x="197" y="407" type="line"/>
      <point x="197" y="697" type="line"/>
      <point x="70" y="697" type="line"/>
    </contour>
  </outline>
</glyph>
<glyph name="comma" format="2">
  <advance width="240"/>
  <unicode hex="002C"/>
  <outline>
    <contour>
      <point x="26" y="-145" type="line"/>
      <point x="124" y="-145" type="line"/>
      <point x="247" y="162" type="line"/>
      <point x="78" y="162" type="line"/>
    </contour>
  </outline>
</glyph>
<glyph name="slash" format="2">
  <advance width="422"/>
  <unicode hex="002F"/>
  <outline>
    <contour>
      <point x="-69" y="-212" type="line"/>
      <point x="43" y="-212" type="line"/>
      <point x="408" y="697" type="line"/>
      <point x="295" y="697" type="line"/>
    </contour>
  </outline>
</glyph>
<glyph name="zero" format="2">
  <advance width="560"/>
  <unicode hex="0030"/>
  <outline>
    <contour>
      <point x="280" y="-10" type="curve" smooth="yes"/>
      <point x="513" y="-10"/>
      <point x="533" y="212"/>
      <point x="533" y="353" type="curve" smooth="yes"/>
      <point x="533" y="484"/>
      <point x="516" y="709"/>
      <point x="280" y="709" type="curve" smooth="yes"/>
      <point x="45" y="709"/>
      <point x="27" y="486"/>
      <point x="27" y="353" type="curve" smooth="yes"/>
      <point x="27" y="212"/>
      <point x="47" y="-10"/>
    </contour>
    <contour>
      <point x="280" y="134" type="curve" smooth="yes"/>
      <point x="192" y="134"/>
      <point x="181" y="235"/>
      <point x="181" y="348" type="curve" smooth="yes"/>
      <point x="181" y="466"/>
      <point x="192" y="564"/>
      <point x="280" y="564" type="curve" smooth="yes"/>
      <point x="368" y="564"/>
      <point x="379" y="466"/>
      <point x="379" y="348" type="curve" smooth="yes"/>
      <point x="379" y="235"/>
      <point x="368" y="134"/>
    </contour>
  </outline>
</glyph>
<glyph name="one" format="2">
  <advance width="560"/>
  <unicode hex="0031"/>
  <outline>
    <contour>
      <point x="258" y="0" type="line"/>
      <point x="409" y="0" type="line"/>
      <point x="409" y="697" type="line"/>
      <point x="258" y="697" type="line"/>
      <point x="82" y="590" type="line"/>
      <point x="83" y="447" type="line"/>
      <point x="258" y="544" type="line"/>
      <point x="258" y="544" type="line"/>
    </contour>
  </outline>
</glyph>
<glyph name="four" format="2">
  <advance width="560"/>
  <unicode hex="0034"/>
  <outline>
    <contour>
      <point x="295" y="0" type="line"/>
      <point x="446" y="0" type="line"/>
      <point x="446" y="163" type="line"/>
      <point x="556" y="163" type="line"/>
      <point x="556" y="303" type="line"/>
      <point x="446" y="303" type="line"/>
      <point x="446" y="697" type="line"/>
      <point x="316" y="697" type="line"/>
      <point x="3" y="278" type="line"/>
      <point x="3" y="163" type="line"/>
      <point x="295" y="163" type="line"/>
    </contour>
    <contour>
      <point x="162" y="290" type="line"/>
      <point x="340" y="532" type="line"/>
      <point x="319" y="556" type="line"/>
      <point x="319" y="303" type="line"/>
      <point x="162" y="303" type="line"/>
    </contour>
  </outline>
</glyph>
<glyph name="eight" format="2">
  <advance width="560"/>
  <unicode hex="0038"/>
  <outline>
    <contour>
      <point x="280" y="-11" type="curve" smooth="yes"/>
      <point x="423" y="-11"/>
      <point x="551" y="62"/>
      <point x="551" y="211" type="curve" smooth="yes"/>
      <point x="551" y="279"/>
      <point x="526" y="338"/>
      <point x="467" y="379" type="curve"/>
      <point x="500" y="409"/>
      <point x="518" y="446"/>
      <point x="518" y="500" type="curve" smooth="yes"/>
      <point x="518" y="630"/>
      <point x="406" y="708"/>
      <point x="280" y="708" type="curve" smooth="yes"/>
      <point x="154" y="708"/>
      <point x="40" y="630"/>
      <point x="40" y="500" type="curve" smooth="yes"/>
      <point x="40" y="446"/>
      <point x="60" y="409"/>
      <point x="93" y="379" type="curve"/>
      <point x="34" y="338"/>
      <point x="9" y="279"/>
      <point x="9" y="211" type="curve" smooth="yes"/>
      <point x="9" y="62"/>
      <point x="137" y="-11"/>
    </contour>
    <contour>
      <point x="280" y="132" type="curve" smooth="yes"/>
      <point x="209" y="132"/>
      <point x="160" y="164"/>
      <point x="160" y="226" type="curve" smooth="yes"/>
      <point x="160" y="288"/>
      <point x="210" y="319"/>
      <point x="280" y="319" type="curve" smooth="yes"/>
      <point x="350" y="319"/>
      <point x="400" y="288"/>
      <point x="400" y="226" type="curve" smooth="yes"/>
      <point x="400" y="164"/>
      <point x="351" y="132"/>
    </contour>
    <contour>
      <point x="280" y="421" type="curve" smooth="yes"/>
      <point x="227" y="421"/>
      <point x="191" y="447"/>
      <point x="191" y="490" type="curve" smooth="yes"/>
      <point x="191" y="535"/>
      <point x="224" y="564"/>
      <point x="280" y="564" type="curve" smooth="yes"/>
      <point x="336" y="564"/>
      <point x="369" y="535"/>
      <point x="369" y="490" type="curve" smooth="yes"/>
      <point x="369" y="447"/>
      <point x="333" y="421"/>
    </contour>
  </outline>
</glyph>
<glyph name="nine" format="2">
  <advance width="560"/>
  <unicode hex="0039"/>
  <outline>
    <contour>
      <point x="123" y="0" type="line"/>
      <point x="297" y="0" type="line"/>
      <point x="504" y="326" type="line" smooth="yes"/>
      <point x="530" y="367"/>
      <point x="544" y="414"/>
      <point x="544" y="460" type="curve" smooth="yes"/>
      <point x="544" y="606"/>
      <point x="424" y="708"/>
      <point x="279" y="708" type="curve" smooth="yes"/>
      <point x="136" y="708"/>
      <point x="16" y="607"/>
      <point x="16" y="459" type="curve" smooth="yes"/>
      <point x="16" y="323"/>
      <point x="120" y="220"/>
      <point x="258" y="220" type="curve" smooth="yes"/>
      <point x="275" y="220"/>
      <point x="293" y="222"/>
      <point x="311" y="225" type="curve"/>
      <point x="292" y="249" type="line"/>
    </contour>
    <contour>
      <point x="279" y="353" type="curve" smooth="yes"/>
      <point x="217" y="353"/>
      <point x="169" y="392"/>
      <point x="169" y="459" type="curve" smooth="yes"/>
      <point x="169" y="526"/>
      <point x="218" y="564"/>
      <point x="279" y="564" type="curve" smooth="yes"/>
      <point x="341" y="564"/>
      <point x="390" y="526"/>
      <point x="390" y="459" type="curve" smooth="yes"/>
      <point x="390" y="391"/>
      <point x="341" y="353"/>
    </contour>
  </outline>
</glyph>
<glyph name="question" format="2">
  <advance width="514"/>
  <unicode hex="003F"/>
  <outline>
    <contour>
      <point x="190" y="217" type="line"/>
      <point x="317" y="217" type="line"/>
      <point x="317" y="232" type="line" smooth="yes"/>
      <point x="317" y="353"/>
      <point x="480" y="339"/>
      <point x="480" y="515" type="curve" smooth="yes"/>
      <point x="480" y="655"/>
      <point x="377" y="708"/>
      <point x="264" y="708" type="curve" smooth="yes"/>
      <point x="123" y="708"/>
      <point x="26" y="625"/>
      <point x="26" y="477" type="curve"/>
      <point x="159" y="477" type="line"/>
      <point x="158" y="547"/>
      <point x="191" y="583"/>
      <point x="261" y="583" type="curve" smooth="yes"/>
      <point x="316" y="583"/>
      <point x="349" y="562"/>
      <point x="349" y="518" type="curve" smooth="yes"/>
      <point x="349" y="422"/>
      <point x="190" y="424"/>
      <point x="190" y="243" type="curve" smooth="yes"/>
    </contour>
    <contour>
      <point x="178" y="0" type="line"/>
      <point x="333" y="0" type="line"/>
      <point x="333" y="142" type="line"/>
      <point x="178" y="142" type="line"/>
    </contour>
  </outline>
</glyph>
<glyph name="A" format="2">
  <advance width="698"/>
  <unicode hex="0041"/>
  <anchor x="350" y="0" name="bottom"/>
  <anchor x="676" y="0" name="ogonek"/>
  <anchor x="350" y="697" name="top"/>
  <outline>
    <contour>
      <point x="2" y="0" type="line"/>
      <point x="173" y="0" type="line"/>
      <point x="350" y="463" type="line"/>
      <point x="525" y="0" type="line"/>
      <point x="696" y="0" type="line"/>
      <point x="407" y="697" type="line"/>
      <point x="292" y="697" type="line"/>
    </contour>
    <contour>
      <point x="210" y="118" type="line"/>
      <point x="491" y="118" type="line"/>
      <point x="440" y="258" type="line"/>
      <point x="259" y="258" type="line"/>
    </contour>
  </outline>
</glyph>
<glyph name="B" format="2">
  <advance width="618"/>
  <unicode hex="0042"/>
  <anchor x="298" y="0" name="bottom"/>
  <anchor x="298" y="697" name="top"/>
  <outline>
    <contour>
      <point x="59" y="0" type="line"/>
      <point x="356" y="0" type="line" smooth="yes"/>
      <point x="498" y="0"/>
      <point x="586" y="80"/>
      <point x="586" y="209" type="curve" smooth="yes"/>
      <point x="586" y="290"/>
      <point x="553" y="347"/>
      <point x="480" y="379" type="curve"/>
      <point x="523" y="409"/>
      <point x="548" y="459"/>
      <point x="548" y="520" type="curve" smooth="yes"/>
      <point x="548" y="630"/>
      <point x="462" y="697"/>
      <point x="319" y="697" type="curve" smooth="yes"/>
      <point x="59" y="697" type="line"/>
    </contour>
    <contour>
      <point x="216" y="144" type="line"/>
      <point x="216" y="289" type="line"/>
      <point x="343" y="289" type="line" smooth="yes"/>
      <point x="398" y="289"/>
      <point x="429" y="263"/>
      <point x="429" y="216" type="curve" smooth="yes"/>
      <point x="429" y="168"/>
      <point x="401" y="144"/>
      <point x="343" y="144" type="curve" smooth="yes"/>
    </contour>
    <contour>
      <point x="216" y="429" type="line"/>
      <point x="216" y="553" type="line"/>
      <point x="319" y="553" type="line" smooth="yes"/>
      <point x="365" y="553"/>
      <point x="391" y="532"/>
      <point x="391" y="495" type="curve" smooth="yes"/>
      <point x="391" y="453"/>
      <point x="364" y="429"/>
      <point x="319" y="429" type="curve" smooth="yes"/>
    </contour>
  </outline>
</glyph>
<glyph name="C" format="2">
  <advance width="713"/>
  <unicode hex="0043"/>
  <anchor x="356" y="0" name="bottom"/>
  <anchor x="356" y="697" name="top"/>
  <outline>
    <contour>
      <point x="373" y="-18" type="curve" smooth="yes"/>
      <point x="526" y="-18"/>
      <point x="642" y="64"/>
      <point x="690" y="198" type="curve"/>
      <point x="542" y="251" type="line"/>
      <point x="515" y="176"/>
      <point x="455" y="132"/>
      <point x="373" y="132" type="curve" smooth="yes"/>
      <point x="261" y="132"/>
      <point x="189" y="213"/>
      <point x="189" y="349" type="curve" smooth="yes"/>
      <point x="189" y="484"/>
      <point x="261" y="565"/>
      <point x="373" y="565" type="curve" smooth="yes"/>
      <point x="455" y="565"/>
      <point x="515" y="521"/>
      <point x="542" y="446" type="curve"/>
      <point x="690" y="499" type="line"/>
      <point x="642" y="633"/>
      <point x="526" y="715"/>
      <point x="373" y="715" type="curve" smooth="yes"/>
      <point x="171" y="715"/>
      <point x="32" y="568"/>
      <point x="32" y="349" type="curve" smooth="yes"/>
      <point x="32" y="129"/>
      <point x="171" y="-18"/>
    </contour>
  </outline>
</glyph>
<glyph name="H" format="2">
  <advance width="703"/>
  <unicode hex="0048"/>
  <anchor x="353" y="0" name="bottom"/>
  <anchor x="352" y="557" name="center"/>
  <anchor x="352" y="697" name="top"/>
  <anchor x="2" y="697" name="topleft"/>
  <outline>
    <contour>
      <point x="59" y="0" type="line"/>
      <point x="216" y="0" type="line"/>
      <point x="216" y="288" type="line"/>
      <point x="487" y="288" type="line"/>
      <point x="487" y="0" type="line"/>
      <point x="644" y="0" type="line"/>
      <point x="644" y="697" type="line"/>
      <point x="487" y="697" type="line"/>
      <point x="487" y="432" type="line"/>
      <point x="216" y="432" type="line"/>
      <point x="216" y="697" type="line"/>
      <point x="59" y="697" type="line"/>
    </contour>
  </outline>
</glyph>
<glyph name="I" format="2">
  <advance width="275"/>
  <unicode hex="0049"/>
  <anchor x="138" y="0" name="bottom"/>
  <anchor x="216" y="0" name="ogonek"/>
  <anchor x="138" y="697" name="top"/>
  <anchor x="2" y="697" name="topleft"/>
  <outline>
    <contour>
      <point x="59" y="0" type="line"/>
      <point x="216" y="0" type="line"/>
      <point x="216" y="697" type="line"/>
      <point x="59" y="697" type="line"/>
    </contour>
  </outline>
</glyph>
<glyph name="J" format="2">
  <advance width="558"/>
  <unicode hex="004A"/>
  <anchor x="290" y="0" name="bottom"/>
  <anchor x="300" y="697" name="top"/>
  <outline>
    <contour>
      <point x="260" y="-18" type="curve" smooth="yes"/>
      <point x="408" y="-18"/>
      <point x="504" y="81"/>
      <point x="504" y="238" type="curve" smooth="yes"/>
      <point x="504" y="697" type="line"/>
      <point x="346" y="697" type="line"/>
      <point x="346" y="557" type="line"/>
      <point x="346" y="557" type="line"/>
      <point x="346" y="247" type="line" smooth="yes"/>
      <point x="346" y="174"/>
      <point x="328" y="127"/>
      <point x="260" y="127" type="curve" smooth="yes"/>
      <point x="202" y="127"/>
      <point x="176" y="158"/>
      <point x="171" y="242" type="curve"/>
      <point x="16" y="225" type="line"/>
      <point x="26" y="72"/>
      <point x="120" y="-18"/>
    </contour>
  </outline>
</glyph>
<glyph name="K" format="2">
  <advance width="682"/>
  <unicode hex="004B"/>
  <anchor x="341" y="0" name="bottom"/>
  <anchor x="341" y="697" name="top"/>
  <outline>
    <contour>
      <point x="185" y="202" type="line"/>
      <point x="675" y="697" type="line"/>
      <point x="464" y="697" type="line"/>
      <point x="185" y="400" type="line"/>
    </contour>
    <contour>
      <point x="59" y="0" type="line"/>
      <point x="216" y="0" type="line"/>
      <point x="216" y="697" type="line"/>
      <point x="59" y="697" type="line"/>
    </contour>
    <contour>
      <point x="491" y="0" type="line"/>
      <point x="677" y="0" type="line"/>
      <point x="398" y="444" type="line"/>
      <point x="281" y="335" type="line"/>
    </contour>
  </outline>
</glyph>
<glyph name="M" format="2">
  <advance width="868"/>
  <unicode hex="004D"/>
  <anchor x="434" y="0" name="bottom"/>
  <anchor x="434" y="697" name="top"/>
  <outline>
    <contour>
      <point x="59" y="0" type="line"/>
      <point x="216" y="0" type="line"/>
      <point x="216" y="513" type="line"/>
      <point x="201" y="510" type="line"/>
      <point x="358" y="186" type="line"/>
      <point x="510" y="186" type="line"/>
      <point x="667" y="510" type="line"/>
      <point x="652" y="513" type="line"/>
      <point x="652" y="0" type="line"/>
      <point x="809" y="0" type="line"/>
      <point x="809" y="697" type="line"/>
      <point x="580" y="697" type="line"/>
      <point x="420" y="344" type="line"/>
      <point x="448" y="344" type="line"/>
      <point x="288" y="697" type="line"/>
      <point x="59" y="697" type="line"/>
    </contour>
  </outline>
</glyph>
<glyph name="U" format="2">
  <advance width="658"/>
  <unicode hex="0055"/>
  <anchor x="330" y="0" name="bottom"/>
  <anchor x="425" y="0" name="ogonek"/>
  <anchor x="330" y="697" name="top"/>
  <anchor x="678" y="493" name="topright"/>
  <outline>
    <contour>
      <point x="329" y="-18" type="curve" smooth="yes"/>
      <point x="511" y="-18"/>
      <point x="605" y="72"/>
      <point x="605" y="257" type="curve" smooth="yes"/>
      <point x="605" y="697" type="line"/>
      <point x="448" y="697" type="line"/>
      <point x="448" y="268" type="line" smooth="yes"/>
      <point x="448" y="174"/>
      <point x="429" y="126"/>
      <point x="329" y="126" type="curve" smooth="yes"/>
      <point x="228" y="126"/>
      <point x="210" y="173"/>
      <point x="210" y="270" type="curve" smooth="yes"/>
      <point x="210" y="697" type="line"/>
      <point x="53" y="697" type="line"/>
      <point x="53" y="252" type="line" smooth="yes"/>
      <point x="53" y="70"/>
      <point x="146" y="-18"/>
    </contour>
  </outline>
</glyph>
<glyph name="underscore" format="2">
  <advance width="551"/>
  <unicode hex="005F"/>
  <outline>
    <contour>
      <point x="60" y="-114" type="line"/>
      <point x="491" y="-114" type="line"/>
      <point x="491" y="0" type="line"/>
      <point x="60" y="0" type="line"/>
    </contour>
  </outline>
</glyph>
<glyph name="grave" format="2">
  <advance width="326"/>
  <unicode hex="0060"/>
  <outline>
    <contour>
      <point x="184" y="554" type="line"/>
      <point x="295" y="554" type="line"/>
      <point x="191" y="697" type="line"/>
      <point x="31" y="697" type="line"/>
    </contour>
  </outline>
</glyph>
<glyph name="a" format="2">
  <advance width="550"/>
  <unicode hex="0061"/>
  <anchor x="276" y="0" name="bottom"/>
  <anchor x="502" y="0" name="ogonek"/>
  <anchor x="276" y="493" name="top"/>
  <outline>
    <contour>
      <point x="364" y="0" type="line"/>
      <point x="502" y="0" type="line"/>
      <point x="502" y="313" type="line" smooth="yes"/>
      <point x="502" y="430"/>
      <point x="418" y="504"/>
      <point x="278" y="504" type="curve" smooth="yes"/>
      <point x="192" y="504"/>
      <point x="122" y="486"/>
      <point x="44" y="434" type="curve"/>
      <point x="108" y="328" type="line"/>
      <point x="148" y="356"/>
      <point x="213" y="378"/>
      <point x="265" y="378" type="curve" smooth="yes"/>
      <point x="314" y="378"/>
      <point x="352" y="360"/>
      <point x="352" y="313" type="curve" smooth="yes"/>
      <point x="352" y="58" type="line"/>
    </contour>
    <contour>
      <point x="225" y="-11" type="curve" smooth="yes"/>
      <point x="280" y="-11"/>
      <point x="346" y="13"/>
      <point x="384" y="114" type="curve"/>
      <point x="352" y="199" type="line"/>
      <point x="352" y="147"/>
      <point x="305" y="110"/>
      <point x="249" y="110" type="curve" smooth="yes"/>
      <point x="210" y="110"/>
      <point x="185" y="128"/>
      <point x="185" y="156" type="curve" smooth="yes"/>
      <point x="185" y="168"/>
      <point x="190" y="178"/>
      <point x="200" y="185" type="curve" smooth="yes"/>
      <point x="209" y="191"/>
      <point x="222" y="194"/>
      <point x="238" y="194" type="curve" smooth="yes"/>
      <point x="364" y="194" type="line"/>
      <point x="364" y="305" type="line"/>
      <point x="216" y="305" type="line" smooth="yes"/>
      <point x="172" y="305"/>
      <point x="133" y="297"/>
      <point x="102" y="280" type="curve" smooth="yes"/>
      <point x="60" y="257"/>
      <point x="34" y="213"/>
      <point x="34" y="156" type="curve" smooth="yes"/>
      <point x="34" y="55"/>
      <point x="119" y="-11"/>
    </contour>
  </outline>
</glyph>
<glyph name="b" format="2">
  <advance width="566"/>
  <unicode hex="0062"/>
  <anchor x="275" y="0" name="bottom"/>
  <anchor x="154" y="589" name="center"/>
  <anchor x="129" y="697" name="top"/>
  <anchor x="-83" y="493" name="topleft"/>
  <outline>
    <contour>
      <point x="334" y="-11" type="curve" smooth="yes"/>
      <point x="462" y="-11"/>
      <point x="535" y="99"/>
      <point x="535" y="247" type="curve" smooth="yes"/>
      <point x="535" y="412"/>
      <point x="445" y="504"/>
      <point x="334" y="504" type="curve" smooth="yes"/>
      <point x="265" y="504"/>
      <point x="193" y="464"/>
      <point x="177" y="347" type="curve"/>
      <point x="204" y="369" type="line"/>
      <point x="204" y="697" type="line"/>
      <point x="54" y="697" type="line"/>
      <point x="54" y="0" type="line"/>
      <point x="204" y="0" type="line"/>
      <point x="204" y="122" type="line"/>
      <point x="173" y="152" type="line"/>
      <point x="198" y="13"/>
      <point x="274" y="-11"/>
    </contour>
    <contour>
      <point x="287" y="127" type="curve" smooth="yes"/>
      <point x="226" y="127"/>
      <point x="190" y="172"/>
      <point x="190" y="247" type="curve" smooth="yes"/>
      <point x="190" y="321"/>
      <point x="226" y="366"/>
      <point x="287" y="366" type="curve" smooth="yes"/>
      <point x="348" y="366"/>
      <point x="384" y="322"/>
      <point x="384" y="247" type="curve" smooth="yes"/>
      <point x="384" y="171"/>
      <point x="348" y="127"/>
    </contour>
  </outline>
</glyph>
<glyph name="e" format="2">
  <advance width="542"/>
  <unicode hex="0065"/>
  <anchor x="282" y="0" name="bottom"/>
  <anchor x="364" y="0" name="ogonek"/>
  <anchor x="275" y="493" name="top"/>
  <outline>
    <contour>
      <point x="282" y="-11" type="curve" smooth="yes"/>
      <point x="369" y="-11"/>
      <point x="418" y="7"/>
      <point x="496" y="59" type="curve"/>
      <point x="432" y="165" type="line"/>
      <point x="394" y="136"/>
      <point x="340" y="118"/>
      <point x="292" y="118" type="curve" smooth="yes"/>
      <point x="237" y="118"/>
      <point x="190" y="141"/>
      <point x="182" y="194" type="curve"/>
      <point x="506" y="194" type="line"/>
      <point x="508" y="215"/>
      <point x="509" y="228"/>
      <point x="509" y="242" type="curve" smooth="yes"/>
      <point x="509" y="394"/>
      <point x="428" y="504"/>
      <point x="274" y="504" type="curve" smooth="yes"/>
      <point x="98" y="504"/>
      <point x="31" y="367"/>
      <point x="31" y="244" type="curve" smooth="yes"/>
      <point x="31" y="117"/>
      <point x="100" y="-11"/>
    </contour>
    <contour>
      <point x="361" y="269" type="curve"/>
      <point x="411" y="305" type="line"/>
      <point x="180" y="305" type="line"/>
      <point x="186" y="337"/>
      <point x="210" y="379"/>
      <point x="277" y="379" type="curve" smooth="yes"/>
      <point x="324" y="379"/>
      <point x="366" y="350"/>
      <point x="366" y="300" type="curve" smooth="yes"/>
      <point x="366" y="291"/>
      <point x="364" y="280"/>
    </contour>
  </outline>
</glyph>
<glyph name="l" format="2">
  <advance width="252"/>
  <unicode hex="006C"/>
  <anchor x="139" y="0" name="bottom"/>
  <anchor x="129" y="343" name="center"/>
  <anchor x="126" y="697" name="top"/>
  <anchor x="344" y="493" name="topright"/>
  <outline>
    <contour>
      <point x="201" y="0" type="line"/>
      <point x="201" y="697" type="line"/>
      <point x="51" y="697" type="line"/>
      <point x="51" y="0" type="line"/>
    </contour>
  </outline>
</glyph>
<glyph name="n" format="2">
  <advance width="576"/>
  <unicode hex="006E"/>
  <anchor x="280" y="0" name="bottom"/>
  <anchor x="280" y="493" name="top"/>
  <outline>
    <contour>
      <point x="54" y="0" type="line"/>
      <point x="205" y="0" type="line"/>
      <point x="205" y="230" type="line" smooth="yes"/>
      <point x="205" y="329"/>
      <point x="234" y="373"/>
      <point x="298" y="373" type="curve" smooth="yes"/>
      <point x="352" y="373"/>
      <point x="376" y="342"/>
      <point x="376" y="272" type="curve" smooth="yes"/>
      <point x="376" y="0" type="line"/>
      <point x="527" y="0" type="line"/>
      <point x="527" y="328" type="line" smooth="yes"/>
      <point x="527" y="436"/>
      <point x="459" y="504"/>
      <point x="345" y="504" type="curve" smooth="yes"/>
      <point x="283" y="504"/>
      <point x="208" y="477"/>
      <point x="185" y="377" type="curve"/>
      <point x="205" y="377" type="line"/>
      <point x="205" y="493" type="line"/>
      <point x="54" y="493" type="line"/>
    </contour>
  </outline>
</glyph>
<glyph name="o" format="2">
  <advance width="569"/>
  <unicode hex="006F"/>
  <anchor x="285" y="0" name="bottom"/>
  <anchor x="285" y="247" name="center"/>
  <anchor x="361" y="0" name="ogonek"/>
  <anchor x="285" y="493" name="top"/>
  <anchor x="506" y="326" name="topright"/>
  <outline>
    <contour>
      <point x="285" y="-11" type="curve" smooth="yes"/>
      <point x="430" y="-11"/>
      <point x="538" y="99"/>
      <point x="538" y="247" type="curve" smooth="yes"/>
      <point x="538" y="396"/>
      <point x="431" y="504"/>
      <point x="285" y="504" type="curve" smooth="yes"/>
      <point x="138" y="504"/>
      <point x="31" y="396"/>
      <point x="31" y="247" type="curve" smooth="yes"/>
      <point x="31" y="98"/>
      <point x="139" y="-11"/>
    </contour>
    <contour>
      <point x="285" y="121" type="curve" smooth="yes"/>
      <point x="219" y="121"/>
      <point x="182" y="166"/>
      <point x="182" y="247" type="curve" smooth="yes"/>
      <point x="182" y="328"/>
      <point x="218" y="372"/>
      <point x="285" y="372" type="curve" smooth="yes"/>
      <point x="351" y="372"/>
      <point x="387" y="328"/>
      <point x="387" y="247" type="curve" smooth="yes"/>
      <point x="387" y="166"/>
      <point x="351" y="121"/>
    </contour>
  </outline>
</glyph>
<glyph name="q" format="2">
  <advance width="566"/>
  <unicode hex="0071"/>
  <guideline x="407" y="-204" angle="0" name=""/>
  <anchor x="437" y="-204" name="bottom"/>
  <anchor x="649" y="0" name="bottomright"/>
  <anchor x="412" y="-96" name="center"/>
  <anchor x="291" y="493" name="top"/>
  <outline>
    <contour>
      <point x="362" y="-204" type="line"/>
      <point x="512" y="-204" type="line"/>
      <point x="512" y="493" type="line"/>
      <point x="362" y="493" type="line"/>
      <point x="362" y="371" type="line"/>
      <point x="393" y="341" type="line"/>
      <point x="368" y="480"/>
      <point x="292" y="504"/>
      <point x="232" y="504" type="curve" smooth="yes"/>
      <point x="104" y="504"/>
      <point x="31" y="394"/>
      <point x="31" y="246" type="curve" smooth="yes"/>
      <point x="31" y="81"/>
      <point x="121" y="-11"/>
      <point x="232" y="-11" type="curve" smooth="yes"/>
      <point x="301" y="-11"/>
      <point x="373" y="29"/>
      <point x="389" y="146" type="curve"/>
      <point x="362" y="124" type="line"/>
    </contour>
    <contour>
      <point x="279" y="127" type="curve" smooth="yes"/>
      <point x="218" y="127"/>
      <point x="182" y="171"/>
      <point x="182" y="246" type="curve" smooth="yes"/>
      <point x="182" y="322"/>
      <point x="218" y="366"/>
      <point x="279" y="366" type="curve" smooth="yes"/>
      <point x="340" y="366"/>
      <point x="376" y="321"/>
      <point x="376" y="246" type="curve" smooth="yes"/>
      <point x="376" y="172"/>
      <point x="340" y="127"/>
    </contour>
  </outline>
</glyph>
<glyph name="s" format="2">
  <advance width="473"/>
  <unicode hex="0073"/>
  <anchor x="237" y="0" name="bottom"/>
  <anchor x="237" y="493" name="top"/>
  <outline>
    <contour>
      <point x="230" y="-11" type="curve" smooth="yes"/>
      <point x="356" y="-11"/>
      <point x="441" y="59"/>
      <point x="441" y="162" type="curve" smooth="yes"/>
      <point x="441" y="280"/>
      <point x="332" y="307"/>
      <point x="255" y="326" type="curve" smooth="yes"/>
      <point x="194" y="341"/>
      <point x="178" y="349"/>
      <point x="178" y="365" type="curve" smooth="yes"/>
      <point x="178" y="381"/>
      <point x="199" y="393"/>
      <point x="228" y="393" type="curve" smooth="yes"/>
      <point x="266" y="393"/>
      <point x="305" y="373"/>
      <point x="329" y="341" type="curve"/>
      <point x="421" y="415" type="line"/>
      <point x="382" y="472"/>
      <point x="313" y="504"/>
      <point x="232" y="504" type="curve" smooth="yes"/>
      <point x="115" y="504"/>
      <point x="37" y="443"/>
      <point x="37" y="351" type="curve" smooth="yes"/>
      <point x="37" y="242"/>
      <point x="137" y="213"/>
      <point x="212" y="192" type="curve" smooth="yes"/>
      <point x="257" y="179"/>
      <point x="293" y="169"/>
      <point x="293" y="145" type="curve" smooth="yes"/>
      <point x="293" y="127"/>
      <point x="271" y="109"/>
      <point x="231" y="109" type="curve" smooth="yes"/>
      <point x="173" y="109"/>
      <point x="139" y="148"/>
      <point x="116" y="176" type="curve"/>
      <point x="14" y="86" type="line"/>
      <point x="49" y="50"/>
      <point x="114" y="-11"/>
    </contour>
  </outline>
</glyph>
<glyph name="v" format="2">
  <advance width="544"/>
  <unicode hex="0076"/>
  <anchor x="273" y="0" name="bottom"/>
  <anchor x="273" y="493" name="top"/>
  <outline>
    <contour>
      <point x="211" y="0" type="line"/>
      <point x="334" y="0" type="line"/>
      <point x="534" y="493" type="line"/>
      <point x="372" y="493" type="line"/>
      <point x="272" y="197" type="line"/>
      <point x="175" y="493" type="line"/>
      <point x="10" y="493" type="line"/>
    </contour>
  </outline>
</glyph>
<glyph name="w" format="2">
  <advance width="759"/>
  <unicode hex="0077"/>
  <anchor x="380" y="0" name="bottom"/>
  <anchor x="380" y="493" name="top"/>
  <outline>
    <contour>
      <point x="169" y="0" type="line"/>
      <point x="304" y="0" type="line"/>
      <point x="379" y="278" type="line"/>
      <point x="456" y="0" type="line"/>
      <point x="589" y="0" type="line"/>
      <point x="746" y="493" type="line"/>
      <point x="585" y="493" type="line"/>
      <point x="513" y="234" type="line"/>
      <point x="442" y="493" type="line"/>
      <point x="315" y="493" type="line"/>
      <point x="244" y="232" type="line"/>
      <point x="173" y="493" type="line"/>
      <point x="13" y="493" type="line"/>
    </contour>
  </outline>
</glyph>
<glyph name="x" format="2">
  <advance width="556"/>
  <unicode hex="0078"/>
  <anchor x="278" y="0" name="bottom"/>
  <anchor x="278" y="493" name="top"/>
  <outline>
    <contour>
      <point x="15" y="0" type="line"/>
      <point x="190" y="0" type="line"/>
      <point x="278" y="151" type="line"/>
      <point x="365" y="0" type="line"/>
      <point x="541" y="0" type="line"/>
      <point x="377" y="249" type="line"/>
      <point x="541" y="493" type="line"/>
      <point x="365" y="493" type="line"/>
      <point x="278" y="346" type="line"/>
      <point x="191" y="493" type="line"/>
      <point x="15" y="493" type="line"/>
      <point x="177" y="249" type="line"/>
    </contour>
  </outline>
</glyph>
<glyph name="y" format="2">
  <advance width="544"/>
  <unicode hex="0079"/>
  <guideline x="421" y="-204" angle="0" name=""/>
  <anchor x="437" y="-31" name="bottom"/>
  <anchor x="273" y="493" name="top"/>
  <outline>
    <contour>
      <point x="88" y="-204" type="line"/>
      <point x="251" y="-204" type="line"/>
      <point x="534" y="493" type="line"/>
      <point x="372" y="493" type="line"/>
      <point x="272" y="197" type="line"/>
      <point x="175" y="493" type="line"/>
      <point x="10" y="493" type="line"/>
      <point x="192" y="47" type="line"/>
    </contour>
  </outline>
</glyph>
<glyph name="bar" format="2">
  <advance width="280"/>
  <unicode hex="007C"/>
  <outline>
    <contour>
      <point x="84" y="-254" type="line"/>
      <point x="196" y="-254" type="line"/>
      <point x="196" y="746" type="line"/>
      <point x="84" y="746" type="line"/>
    </contour>
  </outline>
</glyph>
<glyph name="asciitilde" format="2">
  <advance width="560"/>
  <unicode hex="007E"/>
  <outline>
    <contour>
      <point x="368" y="141" type="curve" smooth="yes"/>
      <point x="460" y="141"/>
      <point x="519" y="220"/>
      <point x="519" y="331" type="curve"/>
      <point x="400" y="331" type="line"/>
      <point x="400" y="284"/>
      <point x="386" y="246"/>
      <point x="368" y="246" type="curve" smooth="yes"/>
      <point x="314" y="246"/>
      <point x="324" y="353"/>
      <point x="192" y="353" type="curve" smooth="yes"/>
      <point x="101" y="353"/>
      <point x="43" y="279"/>
      <point x="43" y="173" type="curve"/>
      <point x="163" y="173" type="line"/>
      <point x="163" y="215"/>
      <point x="173" y="247"/>
      <point x="192" y="247" type="curve" smooth="yes"/>
      <point x="252" y="247"/>
      <point x="239" y="141"/>
    </contour>
  </outline>
</glyph>
<glyph name="yen" format="2">
  <advance width="560"/>
  <unicode hex="00A5"/>
  <outline>
    <contour>
      <point x="205" y="0" type="line"/>
      <point x="362" y="0" type="line"/>
      <point x="362" y="100" type="line"/>
      <point x="505" y="100" type="line"/>
      <point x="505" y="222" type="line"/>
      <point x="362" y="222" type="line"/>
      <point x="362" y="269" type="line"/>
      <point x="505" y="269" type="line"/>
      <point x="505" y="391" type="line"/>
      <point x="428" y="391" type="line"/>
      <point x="563" y="697" type="line"/>
      <point x="395" y="697" type="line"/>
      <point x="280" y="421" type="line"/>
      <point x="170" y="697" type="line"/>
      <point x="1" y="697" type="line"/>
      <point x="138" y="391" type="line"/>
      <point x="58" y="391" type="line"/>
      <point x="58" y="269" type="line"/>
      <point x="205" y="269" type="line"/>
      <point x="205" y="222" type="line"/>
      <point x="58" y="222" type="line"/>
      <point x="58" y="100" type="line"/>
      <point x="205" y="100" type="line"/>
    </contour>
  </outline>
</glyph>
<glyph name="brokenbar" format="2">
  <advance width="280"/>
  <unicode hex="00A6"/>
  <outline>
    <contour>
      <point x="84" y="330" type="line"/>
      <point x="196" y="330" type="line"/>
      <point x="196" y="746" type="line"/>
      <point x="84" y="746" type="line"/>
    </contour>
    <contour>
      <point x="84" y="-254" type="line"/>
      <point x="196" y="-254" type="line"/>
      <point x="196" y="155" type="line"/>
      <point x="84" y="155" type="line"/>
    </contour>
  </outline>
</glyph>
<glyph name="copyright" format="2">
  <advance width="789"/>
  <unicode hex="00A9"/>
  <outline>
    <contour>
      <point x="395" y="-5" type="curve" smooth="yes"/>
      <point x="590" y="-5"/>
      <point x="748" y="153"/>
      <point x="748" y="349" type="curve" smooth="yes"/>
      <point x="748" y="544"/>
      <point x="590" y="702"/>
      <point x="395" y="702" type="curve" smooth="yes"/>
      <point x="199" y="702"/>
      <point x="41" y="544"/>
      <point x="41" y="349" type="curve" smooth="yes"/>
      <point x="41" y="153"/>
      <point x="199" y="-5"/>
    </contour>
    <contour>
      <point x="397" y="148" type="curve" smooth="yes"/>
      <point x="478" y="148"/>
      <point x="540" y="194"/>
      <point x="565" y="268" type="curve"/>
      <point x="454" y="311" type="line"/>
      <point x="447" y="283"/>
      <point x="426" y="261"/>
      <point x="396" y="261" type="curve" smooth="yes"/>
      <point x="345" y="261"/>
      <point x="328" y="305"/>
      <point x="328" y="347" type="curve" smooth="yes"/>
      <point x="328" y="389"/>
      <point x="346" y="436"/>
      <point x="396" y="436" type="curve" smooth="yes"/>
      <point x="428" y="436"/>
      <point x="448" y="410"/>
      <point x="453" y="384" type="curve"/>
      <point x="570" y="429" type="line"/>
      <point x="540" y="510"/>
      <point x="477" y="548"/>
      <point x="396" y="548" type="curve" smooth="yes"/>
      <point x="265" y="548"/>
      <point x="204" y="448"/>
      <point x="204" y="347" type="curve" smooth="yes"/>
      <point x="204" y="251"/>
      <point x="263" y="148"/>
    </contour>
    <contour>
      <point x="395" y="65" type="curve" smooth="yes"/>
      <point x="238" y="65"/>
      <point x="111" y="192"/>
      <point x="111" y="349" type="curve" smooth="yes"/>
      <point x="111" y="506"/>
      <point x="238" y="632"/>
      <point x="395" y="632" type="curve" smooth="yes"/>
      <point x="551" y="632"/>
      <point x="678" y="505"/>
      <point x="678" y="349" type="curve" smooth="yes"/>
      <point x="678" y="192"/>
      <point x="552" y="65"/>
    </contour>
  </outline>
</glyph>
<glyph name="guillemetleft" format="2">
  <advance width="589"/>
  <unicode hex="00AB"/>
  <outline>
    <contour>
      <point x="555" y="32" type="line"/>
      <point x="555" y="192" type="line"/>
      <point x="461" y="252" type="line"/>
      <point x="555" y="312" type="line"/>
      <point x="555" y="472" type="line"/>
      <point x="284" y="252" type="line"/>
    </contour>
    <contour>
      <point x="272" y="32" type="line"/>
      <point x="272" y="192" type="line"/>
      <point x="178" y="252" type="line"/>
      <point x="272" y="312" type="line"/>
      <point x="272" y="472" type="line"/>
      <point x="1" y="252" type="line"/>
    </contour>
  </outline>
</glyph>
<glyph name="logicalnot" format="2">
  <advance width="560"/>
  <unicode hex="00AC"/>
  <guideline x="499" y="606" angle="0" name=""/>
  <guideline x="499" y="382" angle="0" name=""/>
  <outline>
    <contour>
      <point x="374" y="26" type="line"/>
      <point x="493" y="26" type="line"/>
      <point x="493" y="306" type="line"/>
      <point x="27" y="306" type="line"/>
      <point x="27" y="188" type="line"/>
      <point x="374" y="188" type="line"/>
    </contour>
  </outline>
</glyph>
<glyph name="registered" format="2">
  <advance width="600"/>
  <unicode hex="00AE"/>
  <outline>
    <contour>
      <point x="300" y="188" type="curve" smooth="yes"/>
      <point x="444" y="188"/>
      <point x="560" y="288"/>
      <point x="560" y="448" type="curve" smooth="yes"/>
      <point x="560" y="607"/>
      <point x="444" y="708"/>
      <point x="300" y="708" type="curve" smooth="yes"/>
      <point x="157" y="708"/>
      <point x="40" y="607"/>
      <point x="40" y="448" type="curve" smooth="yes"/>
      <point x="40" y="288"/>
      <point x="157" y="188"/>
    </contour>
    <contour>
      <point x="300" y="255" type="curve" smooth="yes"/>
      <point x="193" y="255"/>
      <point x="107" y="327"/>
      <point x="107" y="448" type="curve" smooth="yes"/>
      <point x="107" y="569"/>
      <point x="193" y="641"/>
      <point x="300" y="641" type="curve" smooth="yes"/>
      <point x="407" y="641"/>
      <point x="493" y="569"/>
      <point x="493" y="448" type="curve" smooth="yes"/>
      <point x="493" y="327"/>
      <point x="407" y="255"/>
    </contour>
    <contour>
      <point x="214" y="305" type="line"/>
      <point x="278" y="305" type="line"/>
      <point x="278" y="420" type="line"/>
      <point x="304" y="420" type="line"/>
      <point x="352" y="305" type="line"/>
      <point x="421" y="305" type="line"/>
      <point x="365" y="428" type="line"/>
      <point x="397" y="441"/>
      <point x="414" y="467"/>
      <point x="414" y="507" type="curve" smooth="yes"/>
      <point x="414" y="559"/>
      <point x="387" y="592"/>
      <point x="315" y="592" type="curve" smooth="yes"/>
      <point x="214" y="592" type="line"/>
    </contour>
    <contour>
      <point x="279" y="477" type="line"/>
      <point x="279" y="535" type="line"/>
      <point x="308" y="535" type="line" smooth="yes"/>
      <point x="328" y="535"/>
      <point x="350" y="533"/>
      <point x="350" y="507" type="curve" smooth="yes"/>
      <point x="350" y="480"/>
      <point x="329" y="477"/>
      <point x="308" y="477" type="curve" smooth="yes"/>
    </contour>
  </outline>
</glyph>
<glyph name="macron" format="2">
  <advance width="340"/>
  <unicode hex="00AF"/>
  <outline>
    <contour>
      <point x="31" y="546" type="line"/>
      <point x="309" y="546" type="line"/>
      <point x="309" y="633" type="line"/>
      <point x="31" y="633" type="line"/>
    </contour>
  </outline>
</glyph>
<glyph name="twosuperior" format="2">
  <advance width="400"/>
  <unicode hex="00B2"/>
  <outline>
    <contour>
      <point x="41" y="488" type="line"/>
      <point x="357" y="488" type="line"/>
      <point x="357" y="560" type="line"/>
      <point x="138" y="560" type="line"/>
      <point x="160" y="553" type="line"/>
      <point x="238" y="590"/>
      <point x="337" y="685"/>
      <point x="337" y="778" type="curve" smooth="yes"/>
      <point x="337" y="862"/>
      <point x="279" y="908"/>
      <point x="203" y="908" type="curve" smooth="yes"/>
      <point x="110" y="908"/>
      <point x="57" y="831"/>
      <point x="57" y="755" type="curve"/>
      <point x="135" y="749" type="line"/>
      <point x="137" y="789"/>
      <point x="151" y="836"/>
      <point x="203" y="836" type="curve" smooth="yes"/>
      <point x="242" y="836"/>
      <point x="257" y="810"/>
      <point x="257" y="780" type="curve" smooth="yes"/>
      <point x="257" y="682"/>
      <point x="110" y="591"/>
      <point x="41" y="550" type="curve"/>
    </contour>
  </outline>
</glyph>
<glyph name="threesuperior" format="2">
  <advance width="391"/>
  <unicode hex="00B3"/>
  <outline>
    <contour>
      <point x="193" y="480" type="curve" smooth="yes"/>
      <point x="274" y="480"/>
      <point x="348" y="523"/>
      <point x="348" y="609" type="curve" smooth="yes"/>
      <point x="348" y="651"/>
      <point x="331" y="696"/>
      <point x="277" y="711" type="curve"/>
      <point x="317" y="732"/>
      <point x="326" y="763"/>
      <point x="326" y="792" type="curve" smooth="yes"/>
      <point x="326" y="864"/>
      <point x="261" y="906"/>
      <point x="192" y="906" type="curve" smooth="yes"/>
      <point x="120" y="906"/>
      <point x="58" y="861"/>
      <point x="58" y="782" type="curve"/>
      <point x="133" y="777" type="line"/>
      <point x="134" y="811"/>
      <point x="158" y="832"/>
      <point x="194" y="832" type="curve" smooth="yes"/>
      <point x="223" y="832"/>
      <point x="249" y="819"/>
      <point x="249" y="775" type="curve" smooth="yes"/>
      <point x="249" y="751"/>
      <point x="241" y="729"/>
      <point x="175" y="729" type="curve"/>
      <point x="175" y="677" type="line"/>
      <point x="218" y="677"/>
      <point x="272" y="672"/>
      <point x="272" y="617" type="curve" smooth="yes"/>
      <point x="272" y="571"/>
      <point x="233" y="553"/>
      <point x="194" y="553" type="curve" smooth="yes"/>
      <point x="149" y="553"/>
      <point x="114" y="578"/>
      <point x="114" y="623" type="curve"/>
      <point x="38" y="618" type="line"/>
      <point x="38" y="525"/>
      <point x="111" y="480"/>
    </contour>
  </outline>
</glyph>
<glyph name="micro" format="2">
  <advance width="576"/>
  <unicode hex="00B5"/>
  <outline>
    <contour>
      <point x="48" y="-157" type="line"/>
      <point x="199" y="-157" type="line"/>
      <point x="199" y="-9" type="line"/>
      <point x="210" y="-10"/>
      <point x="221" y="-11"/>
      <point x="233" y="-11" type="curve" smooth="yes"/>
      <point x="286" y="-11"/>
      <point x="334" y="6"/>
      <point x="370" y="48" type="curve"/>
      <point x="370" y="0" type="line"/>
      <point x="521" y="0" type="line"/>
      <point x="521" y="493" type="line"/>
      <point x="370" y="493" type="line"/>
      <point x="370" y="330" type="line" smooth="yes"/>
      <point x="370" y="213"/>
      <point x="370" y="120"/>
      <point x="279" y="120" type="curve" smooth="yes"/>
      <point x="206" y="120"/>
      <point x="199" y="171"/>
      <point x="199" y="219" type="curve" smooth="yes"/>
      <point x="199" y="493" type="line"/>
      <point x="48" y="493" type="line"/>
    </contour>
  </outline>
</glyph>
<glyph name="cedilla" format="2">
  <advance width="279"/>
  <unicode hex="00B8"/>
  <outline>
    <contour>
      <point x="129" y="-260" type="curve" smooth="yes"/>
      <point x="196" y="-260"/>
      <point x="248" y="-206"/>
      <point x="248" y="-139" type="curve" smooth="yes"/>
      <point x="248" y="-97"/>
      <point x="229" y="-64"/>
      <point x="194" y="-48" type="curve"/>
      <point x="182" y="-43"/>
      <point x="177" y="-43"/>
      <point x="167" y="-40" type="curve"/>
      <point x="204" y="-1" type="line"/>
      <point x="116" y="-1" type="line"/>
      <point x="53" y="-97" type="line"/>
      <point x="64" y="-97"/>
      <point x="82" y="-97"/>
      <point x="82" y="-97" type="curve" smooth="yes"/>
      <point x="128" y="-94"/>
      <point x="161" y="-117"/>
      <point x="161" y="-146" type="curve" smooth="yes"/>
      <point x="161" y="-161"/>
      <point x="149" y="-175"/>
      <point x="133" y="-175" type="curve" smooth="yes"/>
      <point x="124" y="-175"/>
      <point x="117" y="-168"/>
      <point x="114" y="-161" type="curve"/>
      <point x="31" y="-196" type="line"/>
      <point x="48" y="-233"/>
      <point x="88" y="-260"/>
    </contour>
  </outline>
</glyph>
<glyph name="AE" format="2">
  <advance width="949"/>
  <unicode hex="00C6"/>
  <anchor x="482" y="0" name="bottom"/>
  <anchor x="482" y="697" name="top"/>
  <outline>
    <contour>
      <point x="2" y="0" type="line"/>
      <point x="173" y="0" type="line"/>
      <point x="385" y="559" type="line"/>
      <point x="413" y="559" type="line"/>
      <point x="413" y="0" type="line"/>
      <point x="903" y="0" type="line"/>
      <point x="903" y="140" type="line"/>
      <point x="571" y="140" type="line"/>
      <point x="571" y="278" type="line"/>
      <point x="864" y="278" type="line"/>
      <point x="864" y="418" type="line"/>
      <point x="571" y="418" type="line"/>
      <point x="571" y="557" type="line"/>
      <point x="903" y="557" type="line"/>
      <point x="903" y="697" type="line"/>
      <point x="291" y="697" type="line"/>
    </contour>
    <contour>
      <point x="194" y="118" type="line"/>
      <point x="450" y="118" type="line"/>
      <point x="450" y="262" type="line"/>
      <point x="243" y="262" type="line"/>
    </contour>
  </outline>
</glyph>
<glyph name="multiply" format="2">
  <advance width="560"/>
  <unicode hex="00D7"/>
  <outline>
    <contour>
      <point x="143" y="18" type="line"/>
      <point x="279" y="153" type="line"/>
      <point x="416" y="18" type="line"/>
      <point x="509" y="109" type="line"/>
      <point x="373" y="247" type="line"/>
      <point x="509" y="383" type="line"/>
      <point x="416" y="476" type="line"/>
      <point x="279" y="339" type="line"/>
      <point x="143" y="476" type="line"/>
      <point x="51" y="383" type="line"/>
      <point x="187" y="247" type="line"/>
      <point x="51" y="109" type="line"/>
    </contour>
  </outline>
</glyph>
<glyph name="Thorn" format="2">
  <advance width="606"/>
  <unicode hex="00DE"/>
  <anchor x="300" y="0" name="bottom"/>
  <anchor x="300" y="697" name="top"/>
  <outline>
    <contour>
      <point x="98" y="0" type="line"/>
      <point x="241" y="0" type="line"/>
      <point x="241" y="191" type="line"/>
      <point x="324" y="191" type="line" smooth="yes"/>
      <point x="480" y="191"/>
      <point x="571" y="270"/>
      <point x="571" y="404" type="curve" smooth="yes"/>
      <point x="571" y="530"/>
      <point x="492" y="603"/>
      <point x="359" y="603" type="curve" smooth="yes"/>
      <point x="241" y="603" type="line"/>
      <point x="241" y="697" type="line"/>
      <point x="98" y="697" type="line"/>
    </contour>
    <contour>
      <point x="241" y="321" type="line"/>
      <point x="241" y="481" type="line"/>
      <point x="324" y="481" type="line" smooth="yes"/>
      <point x="388" y="481"/>
      <point x="428" y="460"/>
      <point x="428" y="399" type="curve" smooth="yes"/>
      <point x="428" y="340"/>
      <point x="388" y="321"/>
      <point x="324" y="321" type="curve" smooth="yes"/>
    </contour>
  </outline>
</glyph>
<glyph name="kgreenlandic" format="2">
  <advance width="589"/>
  <unicode hex="0138"/>
  <anchor x="295" y="0" name="bottom"/>
  <anchor x="288" y="493" name="top"/>
  <outline>
    <contour>
      <point x="386" y="0" type="line"/>
      <point x="565" y="0" type="line"/>
      <point x="368" y="307" type="line"/>
      <point x="548" y="493" type="line"/>
      <point x="357" y="493" type="line"/>
      <point x="194" y="318" type="line"/>
      <point x="194" y="131" type="line"/>
      <point x="258" y="206" type="line"/>
    </contour>
    <contour>
      <point x="54" y="0" type="line"/>
      <point x="205" y="0" type="line"/>
      <point x="205" y="493" type="line"/>
      <point x="54" y="493" type="line"/>
    </contour>
  </outline>
</glyph>
<glyph name="Eng" format="2">
  <advance width="698"/>
  <unicode hex="014A"/>
  <outline>
    <contour>
      <point x="453" y="-189" type="curve" smooth="yes"/>
      <point x="593" y="-189"/>
      <point x="639" y="-89"/>
      <point x="639" y="8" type="curve" smooth="yes"/>
      <point x="639" y="697" type="line"/>
      <point x="482" y="697" type="line"/>
      <point x="482" y="225" type="line"/>
      <point x="518" y="225" type="line"/>
      <point x="219" y="697" type="line"/>
      <point x="59" y="697" type="line"/>
      <point x="59" y="0" type="line"/>
      <point x="216" y="0" type="line"/>
      <point x="216" y="475" type="line"/>
      <point x="180" y="475" type="line"/>
      <point x="478" y="0" type="line" smooth="yes"/>
      <point x="488" y="-16"/>
      <point x="489" y="-30"/>
      <point x="489" y="-39" type="curve" smooth="yes"/>
      <point x="489" y="-65"/>
      <point x="462" y="-87"/>
      <point x="410" y="-87" type="curve" smooth="yes"/>
      <point x="401" y="-87"/>
      <point x="392" y="-87"/>
      <point x="383" y="-87" type="curve"/>
      <point x="383" y="-186" type="line"/>
      <point x="411" y="-189"/>
      <point x="431" y="-189"/>
    </contour>
  </outline>
</glyph>
<glyph name="OE" format="2">
  <advance width="966"/>
  <unicode hex="0152"/>
  <anchor x="449" y="0" name="bottom"/>
  <anchor x="449" y="697" name="top"/>
  <outline>
    <contour>
      <point x="400" y="0" type="curve" smooth="yes"/>
      <point x="920" y="0" type="line"/>
      <point x="920" y="140" type="line"/>
      <point x="609" y="140" type="line"/>
      <point x="609" y="289" type="line"/>
      <point x="905" y="289" type="line"/>
      <point x="905" y="429" type="line"/>
      <point x="609" y="429" type="line"/>
      <point x="609" y="557" type="line"/>
      <point x="920" y="557" type="line"/>
      <point x="920" y="697" type="line"/>
      <point x="399" y="697" type="line" smooth="yes"/>
      <point x="166" y="697"/>
      <point x="32" y="569"/>
      <point x="32" y="343" type="curve" smooth="yes"/>
      <point x="32" y="121"/>
      <point x="162" y="0"/>
    </contour>
    <contour>
      <point x="416" y="144" type="line" smooth="yes"/>
      <point x="274" y="144"/>
      <point x="190" y="181"/>
      <point x="190" y="349" type="curve" smooth="yes"/>
      <point x="190" y="511"/>
      <point x="271" y="553"/>
      <point x="402" y="553" type="curve" smooth="yes"/>
      <point x="452" y="553" type="line"/>
      <point x="452" y="144" type="line"/>
    </contour>
  </outline>
</glyph>
<glyph name="tbar" format="2">
  <advance width="395"/>
  <unicode hex="0167"/>
  <anchor x="249" y="0" name="bottom"/>
  <anchor x="203" y="248" name="center"/>
  <anchor x="215" y="493" name="top"/>
  <anchor x="389" y="562" name="topright"/>
  <outline>
    <contour>
      <point x="270" y="-11" type="curve" smooth="yes"/>
      <point x="302" y="-11"/>
      <point x="331" y="-6"/>
      <point x="360" y="5" type="curve"/>
      <point x="360" y="120" type="line"/>
      <point x="341" y="115"/>
      <point x="325" y="112"/>
      <point x="312" y="112" type="curve" smooth="yes"/>
      <point x="268" y="112"/>
      <point x="257" y="141"/>
      <point x="257" y="200" type="curve" smooth="yes"/>
      <point x="257" y="677" type="line"/>
      <point x="105" y="596" type="line"/>
      <point x="105" y="157" type="line" smooth="yes"/>
      <point x="105" y="31"/>
      <point x="185" y="-11"/>
    </contour>
    <contour>
      <point x="23" y="198" type="line"/>
      <point x="360" y="198" type="line"/>
      <point x="360" y="298" type="line"/>
      <point x="23" y="298" type="line"/>
    </contour>
    <contour>
      <point x="23" y="376" type="line"/>
      <point x="360" y="376" type="line"/>
      <point x="360" y="493" type="line"/>
      <point x="23" y="493" type="line"/>
    </contour>
  </outline>
</glyph>
<glyph name="circumflex" format="2">
  <advance width="382"/>
  <unicode hex="02C6"/>
  <outline>
    <contour>
      <point x="31" y="537" type="line"/>
      <point x="145" y="537" type="line"/>
      <point x="191" y="593" type="line"/>
      <point x="237" y="537" type="line"/>
      <point x="351" y="537" type="line"/>
      <point x="191" y="720" type="line"/>
    </contour>
  </outline>
</glyph>
<glyph name="breve" format="2">
  <advance width="380"/>
  <unicode hex="02D8"/>
  <outline>
    <contour>
      <point x="190" y="563" type="curve" smooth="yes"/>
      <point x="296" y="563"/>
      <point x="349" y="605"/>
      <point x="349" y="697" type="curve"/>
      <point x="243" y="697" type="line"/>
      <point x="243" y="666"/>
      <point x="218" y="650"/>
      <point x="190" y="650" type="curve" smooth="yes"/>
      <point x="164" y="650"/>
      <point x="137" y="664"/>
      <point x="137" y="697" type="curve"/>
      <point x="31" y="697" type="line"/>
      <point x="31" y="611"/>
      <point x="78" y="563"/>
    </contour>
  </outline>
</glyph>
<glyph name="middledoublegraveaccentmod" format="2">
  <advance width="588"/>
  <unicode hex="02F5"/>
  <outline>
    <contour>
      <point x="215" y="322" type="line"/>
      <point x="324" y="322" type="line"/>
      <point x="212" y="493" type="line"/>
      <point x="50" y="493" type="line"/>
    </contour>
    <contour>
      <point x="427" y="322" type="line"/>
      <point x="536" y="322" type="line"/>
      <point x="426" y="493" type="line"/>
      <point x="266" y="493" type="line"/>
    </contour>
  </outline>
</glyph>
<glyph name="acutecomb" format="2">
  <advance width="337"/>
  <unicode hex="0301"/>
  <anchor x="86" y="493" name="_top"/>
  <anchor x="168" y="697" name="top"/>
  <outline>
    <contour>
      <point x="31" y="554" type="line"/>
      <point x="140" y="554" type="line"/>
      <point x="306" y="697" type="line"/>
      <point x="144" y="697" type="line"/>
    </contour>
  </outline>
</glyph>
<glyph name="macroncomb" format="2">
  <advance width="340"/>
  <unicode hex="0304"/>
  <anchor x="170" y="493" name="_top"/>
  <anchor x="170" y="633" name="top"/>
  <outline>
    <contour>
      <point x="31" y="546" type="line"/>
      <point x="309" y="546" type="line"/>
      <point x="309" y="633" type="line"/>
      <point x="31" y="633" type="line"/>
    </contour>
  </outline>
</glyph>
<glyph name="dotaccentcomb" format="2">
  <advance width="216"/>
  <unicode hex="0307"/>
  <anchor x="108" y="493" name="_top"/>
  <anchor x="108" y="697" name="top"/>
  <outline>
    <contour>
      <point x="31" y="561" type="line"/>
      <point x="185" y="561" type="line"/>
      <point x="185" y="697" type="line"/>
      <point x="31" y="697" type="line"/>
    </contour>
  </outline>
</glyph>
<glyph name="dieresiscomb" format="2">
  <advance width="420"/>
  <unicode hex="0308"/>
  <anchor x="210" y="493" name="_top"/>
  <anchor x="210" y="697" name="top"/>
  <outline>
    <contour>
      <point x="322" y="537" type="curve" smooth="yes"/>
      <point x="370" y="537"/>
      <point x="407" y="575"/>
      <point x="407" y="623" type="curve" smooth="yes"/>
      <point x="407" y="671"/>
      <point x="370" y="708"/>
      <point x="322" y="708" type="curve" smooth="yes"/>
      <point x="274" y="708"/>
      <point x="237" y="671"/>
      <point x="237" y="623" type="curve" smooth="yes"/>
      <point x="237" y="575"/>
      <point x="275" y="537"/>
    </contour>
    <contour>
      <point x="116" y="537" type="curve" smooth="yes"/>
      <point x="164" y="537"/>
      <point x="201" y="575"/>
      <point x="201" y="623" type="curve" smooth="yes"/>
      <point x="201" y="671"/>
      <point x="164" y="708"/>
      <point x="116" y="708" type="curve" smooth="yes"/>
      <point x="68" y="708"/>
      <point x="31" y="671"/>
      <point x="31" y="623" type="curve" smooth="yes"/>
      <point x="31" y="575"/>
      <point x="69" y="537"/>
    </contour>
  </outline>
</glyph>
<glyph name="hookabovecomb" format="2">
  <advance width="254"/>
  <unicode hex="0309"/>
  <anchor x="107" y="493" name="_top"/>
  <anchor x="127" y="697" name="top"/>
  <outline>
    <contour>
      <point x="72" y="514" type="line"/>
      <point x="138" y="517"/>
      <point x="223" y="530"/>
      <point x="223" y="601" type="curve" smooth="yes"/>
      <point x="223" y="663"/>
      <point x="153" y="697"/>
      <point x="47" y="697" type="curve" smooth="yes"/>
      <point x="31" y="697" type="line"/>
      <point x="31" y="614" type="line"/>
      <point x="47" y="614" type="line" smooth="yes"/>
      <point x="84" y="614"/>
      <point x="118" y="614"/>
      <point x="118" y="591" type="curve" smooth="yes"/>
      <point x="118" y="569"/>
      <point x="91" y="568"/>
      <point x="63" y="565" type="curve"/>
    </contour>
  </outline>
</glyph>
<glyph name="hungarumlautcomb" format="2">
  <advance width="540"/>
  <unicode hex="030B"/>
  <anchor x="188" y="493" name="_top"/>
  <anchor x="271" y="697" name="top"/>
  <outline>
    <contour>
      <point x="236" y="527" type="line"/>
      <point x="345" y="527" type="line"/>
      <point x="509" y="697" type="line"/>
      <point x="349" y="697" type="line"/>
    </contour>
    <contour>
      <point x="31" y="527" type="line"/>
      <point x="140" y="527" type="line"/>
      <point x="279" y="697" type="line"/>
      <point x="144" y="697" type="line"/>
    </contour>
  </outline>
</glyph>
<glyph name="caroncomb" format="2">
  <advance width="382"/>
  <unicode hex="030C"/>
  <anchor x="191" y="493" name="_top"/>
  <anchor x="191" y="697" name="top"/>
  <outline>
    <contour>
      <point x="191" y="526" type="line"/>
      <point x="351" y="697" type="line"/>
      <point x="237" y="697" type="line"/>
      <point x="191" y="637" type="line"/>
      <point x="146" y="697" type="line"/>
      <point x="31" y="697" type="line"/>
    </contour>
  </outline>
</glyph>
<glyph name="commaturnedabovecomb" format="2">
  <advance width="273"/>
  <unicode hex="0312"/>
  <anchor x="136" y="493" name="_top"/>
  <anchor x="136" y="710" name="top"/>
  <outline>
    <contour>
      <point x="31" y="550" type="line"/>
      <point x="187" y="550" type="line"/>
      <point x="242" y="710" type="line"/>
      <point x="156" y="710" type="line"/>
    </contour>
  </outline>
</glyph>
<glyph name="strokelongcomb" format="2">
  <advance width="731"/>
  <unicode hex="0336"/>
  <anchor x="365" y="281" name="_center"/>
  <outline>
    <contour>
      <point x="31" y="236" type="line"/>
      <point x="700" y="236" type="line"/>
      <point x="700" y="324" type="line"/>
      <point x="31" y="324" type="line"/>
    </contour>
  </outline>
</glyph>
<glyph name="slashlongcomb" format="2">
  <advance width="476"/>
  <unicode hex="0338"/>
  <anchor x="238" y="286" name="_center"/>
  <outline>
    <contour>
      <point x="51" y="34" type="line"/>
      <point x="103" y="0" type="line"/>
      <point x="427" y="539" type="line"/>
      <point x="372" y="572" type="line"/>
    </contour>
  </outline>
</glyph>
<glyph name="Delta" format="2">
  <advance width="733"/>
  <unicode hex="0394"/>
  <outline>
    <contour>
      <point x="20" y="0" type="line"/>
      <point x="714" y="0" type="line"/>
      <point x="425" y="697" type="line"/>
      <point x="310" y="697" type="line"/>
    </contour>
    <contour>
      <point x="246" y="144" type="line"/>
      <point x="368" y="463" type="line"/>
      <point x="489" y="144" type="line"/>
    </contour>
  </outline>
</glyph>
<glyph name="Germandbls" format="2">
  <advance width="825"/>
  <unicode hex="1E9E"/>
  <anchor x="413" y="0" name="bottom"/>
  <anchor x="413" y="697" name="top"/>
  <outline>
    <contour>
      <point x="59" y="0" type="line"/>
      <point x="216" y="0" type="line"/>
      <point x="216" y="557" type="line"/>
      <point x="760" y="557" type="line"/>
      <point x="760" y="697" type="line"/>
      <point x="59" y="697" type="line"/>
    </contour>
    <contour>
      <point x="543" y="-15" type="curve" smooth="yes"/>
      <point x="685" y="-15"/>
      <point x="795" y="78"/>
      <point x="795" y="206" type="curve" smooth="yes"/>
      <point x="795" y="315"/>
      <point x="730" y="363"/>
      <point x="597" y="423" type="curve" smooth="yes"/>
      <point x="499" y="467"/>
      <point x="470" y="486"/>
      <point x="470" y="540" type="curve" smooth="yes"/>
      <point x="470" y="557"/>
      <point x="470" y="573"/>
      <point x="470" y="590" type="curve"/>
      <point x="313" y="590" type="line"/>
      <point x="313" y="573"/>
      <point x="313" y="557"/>
      <point x="313" y="540" type="curve" smooth="yes"/>
      <point x="313" y="410"/>
      <point x="369" y="358"/>
      <point x="516" y="295" type="curve" smooth="yes"/>
      <point x="607" y="256"/>
      <point x="639" y="234"/>
      <point x="639" y="192" type="curve" smooth="yes"/>
      <point x="639" y="149"/>
      <point x="597" y="124"/>
      <point x="546" y="124" type="curve" smooth="yes"/>
      <point x="476" y="124"/>
      <point x="426" y="162"/>
      <point x="419" y="244" type="curve"/>
      <point x="263" y="205" type="line"/>
      <point x="284" y="72"/>
      <point x="398" y="-15"/>
    </contour>
  </outline>
</glyph>
<glyph name="emdash" format="2">
  <advance width="1058"/>
  <unicode hex="2014"/>
  <outline>
    <contour>
      <point x="24" y="234" type="line"/>
      <point x="1034" y="234" type="line"/>
      <point x="1034" y="346" type="line"/>
      <point x="24" y="346" type="line"/>
    </contour>
  </outline>
</glyph>
<glyph name="quoteleft" format="2">
  <advance width="274"/>
  <unicode hex="2018"/>
  <outline>
    <contour>
      <point x="22" y="420" type="line"/>
      <point x="197" y="420" type="line"/>
      <point x="243" y="697" type="line"/>
      <point x="144" y="697" type="line"/>
    </contour>
  </outline>
</glyph>
<glyph name="quoteright" format="2">
  <advance width="275"/>
  <unicode hex="2019"/>
  <outline>
    <contour>
      <point x="31" y="421" type="line"/>
      <point x="129" y="421" type="line"/>
      <point x="252" y="697" type="line"/>
      <point x="77" y="697" type="line"/>
    </contour>
  </outline>
</glyph>
<glyph name="quotesinglbase" format="2">
  <advance width="283"/>
  <unicode hex="201A"/>
  <outline>
    <contour>
      <point x="38" y="-145" type="line"/>
      <point x="136" y="-145" type="line"/>
      <point x="259" y="131" type="line"/>
      <point x="84" y="131" type="line"/>
    </contour>
  </outline>
</glyph>
<glyph name="quotedblleft" format="2">
  <advance width="479"/>
  <unicode hex="201C"/>
  <outline>
    <contour>
      <point x="228" y="420" type="line"/>
      <point x="403" y="420" type="line"/>
      <point x="448" y="697" type="line"/>
      <point x="349" y="697" type="line"/>
    </contour>
    <contour>
      <point x="22" y="420" type="line"/>
      <point x="197" y="420" type="line"/>
      <point x="243" y="697" type="line"/>
      <point x="144" y="697" type="line"/>
    </contour>
  </outline>
</glyph>
<glyph name="daggerdbl" format="2">
  <advance width="413"/>
  <unicode hex="2021"/>
  <outline>
    <contour>
      <point x="151" y="-101" type="line"/>
      <point x="263" y="-101" type="line"/>
      <point x="263" y="95" type="line"/>
      <point x="376" y="95" type="line"/>
      <point x="376" y="207" type="line"/>
      <point x="263" y="207" type="line"/>
      <point x="263" y="390" type="line"/>
      <point x="376" y="390" type="line"/>
      <point x="376" y="502" type="line"/>
      <point x="263" y="502" type="line"/>
      <point x="263" y="697" type="line"/>
      <point x="151" y="697" type="line"/>
      <point x="151" y="502" type="line"/>
      <point x="37" y="502" type="line"/>
      <point x="37" y="390" type="line"/>
      <point x="151" y="390" type="line"/>
      <point x="151" y="207" type="line"/>
      <point x="37" y="207" type="line"/>
      <point x="37" y="95" type="line"/>
      <point x="151" y="95" type="line"/>
    </contour>
  </outline>
</glyph>
<glyph name="bullet" format="2">
  <advance width="405"/>
  <unicode hex="2022"/>
  <outline>
    <contour>
      <point x="66" y="110" type="line"/>
      <point x="339" y="110" type="line"/>
      <point x="339" y="384" type="line"/>
      <point x="66" y="384" type="line"/>
    </contour>
  </outline>
</glyph>
<glyph name="twodotenleader" format="2">
  <advance width="442"/>
  <unicode hex="2025"/>
  <outline>
    <contour>
      <point x="247" y="0" type="line"/>
      <point x="399" y="0" type="line"/>
      <point x="399" y="142" type="line"/>
      <point x="247" y="142" type="line"/>
    </contour>
    <contour>
      <point x="43" y="0" type="line"/>
      <point x="195" y="0" type="line"/>
      <point x="195" y="142" type="line"/>
      <point x="43" y="142" type="line"/>
    </contour>
  </outline>
</glyph>
<glyph name="guilsinglleft" format="2">
  <advance width="306"/>
  <unicode hex="2039"/>
  <outline>
    <contour>
      <point x="272" y="32" type="line"/>
      <point x="272" y="192" type="line"/>
      <point x="178" y="252" type="line"/>
      <point x="272" y="312" type="line"/>
      <point x="272" y="472" type="line"/>
      <point x="1" y="252" type="line"/>
    </contour>
  </outline>
</glyph>
<glyph name="guilsinglright" format="2">
  <advance width="307"/>
  <unicode hex="203A"/>
  <outline>
    <contour>
      <point x="34" y="32" type="line"/>
      <point x="305" y="252" type="line"/>
      <point x="34" y="472" type="line"/>
      <point x="34" y="312" type="line"/>
      <point x="128" y="252" type="line"/>
      <point x="34" y="192" type="line"/>
    </contour>
  </outline>
</glyph>
<glyph name="euro" format="2">
  <advance width="560"/>
  <unicode hex="20AC"/>
  <outline>
    <contour>
      <point x="338" y="-11" type="curve" smooth="yes"/>
      <point x="428" y="-11"/>
      <point x="496" y="13"/>
      <point x="546" y="55" type="curve"/>
      <point x="464" y="180" type="line"/>
      <point x="436" y="151"/>
      <point x="395" y="130"/>
      <point x="338" y="130" type="curve" smooth="yes"/>
      <point x="246" y="130"/>
      <point x="203" y="224"/>
      <point x="203" y="349" type="curve" smooth="yes"/>
      <point x="203" y="474"/>
      <point x="246" y="567"/>
      <point x="337" y="567" type="curve" smooth="yes"/>
      <point x="395" y="567"/>
      <point x="436" y="546"/>
      <point x="465" y="517" type="curve"/>
      <point x="547" y="642" type="line"/>
      <point x="496" y="684"/>
      <point x="427" y="708"/>
      <point x="337" y="708" type="curve" smooth="yes"/>
      <point x="155" y="708"/>
      <point x="47" y="558"/>
      <point x="47" y="349" type="curve" smooth="yes"/>
      <point x="47" y="140"/>
      <point x="155" y="-11"/>
    </contour>
    <contour>
      <point x="7" y="228" type="line"/>
      <point x="404" y="228" type="line"/>
      <point x="407" y="328" type="line"/>
      <point x="8" y="328" type="line"/>
    </contour>
    <contour>
      <point x="10" y="375" type="line"/>
      <point x="407" y="375" type="line"/>
      <point x="408" y="475" type="line"/>
      <point x="10" y="475" type="line"/>
    </contour>
  </outline>
</glyph>
<glyph name="peso" format="2">
  <advance width="560"/>
  <unicode hex="20B1"/>
  <outline>
    <contour>
      <point x="53" y="0" type="line"/>
      <point x="209" y="0" type="line"/>
      <point x="209" y="280" type="line"/>
      <point x="258" y="280" type="line" smooth="yes"/>
      <point x="415" y="280"/>
      <point x="499" y="369"/>
      <point x="499" y="489" type="curve" smooth="yes"/>
      <point x="499" y="611"/>
      <point x="440" y="697"/>
      <point x="258" y="697" type="curve" smooth="yes"/>
      <point x="53" y="697" type="line"/>
    </contour>
    <contour>
      <point x="-2" y="434" type="line"/>
      <point x="131" y="434" type="line"/>
      <point x="131" y="546" type="line"/>
      <point x="-2" y="546" type="line"/>
    </contour>
    <contour>
      <point x="209" y="427" type="line"/>
      <point x="209" y="550" type="line"/>
      <point x="257" y="550" type="line" smooth="yes"/>
      <point x="323" y="550"/>
      <point x="342" y="534"/>
      <point x="342" y="489" type="curve" smooth="yes"/>
      <point x="342" y="443"/>
      <point x="321" y="427"/>
      <point x="257" y="427" type="curve" smooth="yes"/>
    </contour>
    <contour>
      <point x="452" y="434" type="line"/>
      <point x="550" y="434" type="line"/>
      <point x="550" y="546" type="line"/>
      <point x="452" y="546" type="line"/>
    </contour>
  </outline>
</glyph>
<glyph name="austral" format="2">
  <advance width="560"/>
  <unicode hex="20B3"/>
  <outline>
    <contour>
      <point x="5" y="0" type="line"/>
      <point x="178" y="0" type="line"/>
      <point x="282" y="463" type="line"/>
      <point x="383" y="0" type="line"/>
      <point x="557" y="0" type="line"/>
      <point x="338" y="697" type="line"/>
      <point x="225" y="697" type="line"/>
    </contour>
    <contour>
      <point x="-1" y="113" type="line"/>
      <point x="561" y="113" type="line"/>
      <point x="561" y="213" type="line"/>
      <point x="2" y="213" type="line"/>
    </contour>
    <contour>
      <point x="1" y="260" type="line"/>
      <point x="560" y="260" type="line"/>
      <point x="560" y="360" type="line"/>
      <point x="1" y="360" type="line"/>
    </contour>
  </outline>
</glyph>
<glyph name="hryvnia" format="2">
  <advance width="560"/>
  <unicode hex="20B4"/>
  <outline>
    <contour>
      <point x="290" y="-15" type="curve" smooth="yes"/>
      <point x="414" y="-15"/>
      <point x="505" y="42"/>
      <point x="547" y="134" type="curve"/>
      <point x="401" y="197" type="line"/>
      <point x="379" y="148"/>
      <point x="338" y="124"/>
      <point x="285" y="124" type="curve" smooth="yes"/>
      <point x="232" y="124"/>
      <point x="192" y="148"/>
      <point x="192" y="202" type="curve" smooth="yes"/>
      <point x="192" y="232"/>
      <point x="205" y="254"/>
      <point x="232" y="281" type="curve"/>
      <point x="47" y="274" type="line"/>
      <point x="39" y="253"/>
      <point x="36" y="230"/>
      <point x="36" y="207" type="curve" smooth="yes"/>
      <point x="36" y="75"/>
      <point x="136" y="-15"/>
    </contour>
    <contour>
      <point x="6" y="250" type="line"/>
      <point x="547" y="250" type="line"/>
      <point x="547" y="348" type="line"/>
      <point x="6" y="348" type="line"/>
    </contour>
    <contour>
      <point x="6" y="397" type="line"/>
      <point x="547" y="397" type="line"/>
      <point x="547" y="496" type="line"/>
      <point x="6" y="496" type="line"/>
    </contour>
    <contour>
      <point x="296" y="454" type="curve"/>
      <point x="500" y="454" type="line"/>
      <point x="505" y="473"/>
      <point x="508" y="494"/>
      <point x="508" y="517" type="curve" smooth="yes"/>
      <point x="508" y="633"/>
      <point x="417" y="715"/>
      <point x="280" y="715" type="curve" smooth="yes"/>
      <point x="183" y="715"/>
      <point x="105" y="670"/>
      <point x="60" y="580" type="curve"/>
      <point x="185" y="504" type="line"/>
      <point x="211" y="550"/>
      <point x="245" y="576"/>
      <point x="285" y="576" type="curve" smooth="yes"/>
      <point x="321" y="576"/>
      <point x="351" y="553"/>
      <point x="351" y="520" type="curve" smooth="yes"/>
      <point x="351" y="496"/>
      <point x="338" y="477"/>
    </contour>
  </outline>
</glyph>
<glyph name="ruble" format="2">
  <advance width="560"/>
  <unicode hex="20BD"/>
  <outline>
    <contour>
      <point x="93" y="0" type="line"/>
      <point x="249" y="0" type="line"/>
      <point x="249" y="112" type="line"/>
      <point x="416" y="112" type="line"/>
      <point x="416" y="238" type="line"/>
      <point x="249" y="238" type="line"/>
      <point x="249" y="293" type="line"/>
      <point x="331" y="293" type="line" smooth="yes"/>
      <point x="483" y="293"/>
      <point x="578" y="353"/>
      <point x="578" y="487" type="curve" smooth="yes"/>
      <point x="578" y="618"/>
      <point x="487" y="697"/>
      <point x="331" y="697" type="curve" smooth="yes"/>
      <point x="93" y="697" type="line"/>
      <point x="93" y="427" type="line"/>
      <point x="6" y="427" type="line"/>
      <point x="6" y="293" type="line"/>
      <point x="93" y="293" type="line"/>
      <point x="93" y="238" type="line"/>
      <point x="6" y="238" type="line"/>
      <point x="6" y="112" type="line"/>
      <point x="93" y="112" type="line"/>
    </contour>
    <contour>
      <point x="249" y="427" type="line"/>
      <point x="249" y="550" type="line"/>
      <point x="331" y="550" type="line" smooth="yes"/>
      <point x="362" y="550"/>
      <point x="423" y="550"/>
      <point x="423" y="489" type="curve" smooth="yes"/>
      <point x="423" y="427"/>
      <point x="361" y="427"/>
      <point x="331" y="427" type="curve" smooth="yes"/>
    </contour>
  </outline>
</glyph>
<glyph name="trademark" format="2">
  <advance width="739"/>
  <unicode hex="2122"/>
  <outline>
    <contour>
      <point x="343" y="379" type="line"/>
      <point x="418" y="379" type="line"/>
      <point x="418" y="620" type="line"/>
      <point x="498" y="388" type="line"/>
      <point x="546" y="388" type="line"/>
      <point x="623" y="619" type="line"/>
      <point x="623" y="379" type="line"/>
      <point x="699" y="379" type="line"/>
      <point x="699" y="697" type="line"/>
      <point x="578" y="697" type="line"/>
      <point x="522" y="496" type="line"/>
      <point x="465" y="697" type="line"/>
      <point x="343" y="697" type="line"/>
    </contour>
    <contour>
      <point x="114" y="379" type="line"/>
      <point x="189" y="379" type="line"/>
      <point x="189" y="628" type="line"/>
      <point x="277" y="628" type="line"/>
      <point x="277" y="697" type="line"/>
      <point x="25" y="697" type="line"/>
      <point x="25" y="628" type="line"/>
      <point x="114" y="628" type="line"/>
    </contour>
  </outline>
</glyph>
<glyph name="partialdiff" format="2">
  <advance width="650"/>
  <unicode hex="2202"/>
  <outline>
    <contour>
      <point x="287" y="-6" type="curve" smooth="yes"/>
      <point x="471" y="-6"/>
      <point x="587" y="146"/>
      <point x="587" y="377" type="curve" smooth="yes"/>
      <point x="587" y="584"/>
      <point x="493" y="706"/>
      <point x="334" y="706" type="curve" smooth="yes"/>
      <point x="231" y="706"/>
      <point x="149" y="654"/>
      <point x="113" y="564" type="curve"/>
      <point x="223" y="529" type="line"/>
      <point x="248" y="587"/>
      <point x="299" y="596"/>
      <point x="330" y="596" type="curve" smooth="yes"/>
      <point x="383" y="596"/>
      <point x="423" y="566"/>
      <point x="444" y="512" type="curve" smooth="yes"/>
      <point x="453" y="490"/>
      <point x="458" y="465"/>
      <point x="461" y="435" type="curve"/>
      <point x="430" y="470"/>
      <point x="381" y="492"/>
      <point x="319" y="492" type="curve" smooth="yes"/>
      <point x="182" y="492"/>
      <point x="53" y="384"/>
      <point x="53" y="224" type="curve" smooth="yes"/>
      <point x="53" y="92"/>
      <point x="140" y="-6"/>
    </contour>
    <contour>
      <point x="300" y="123" type="curve" smooth="yes"/>
      <point x="242" y="123"/>
      <point x="194" y="156"/>
      <point x="194" y="224" type="curve" smooth="yes"/>
      <point x="194" y="283"/>
      <point x="230" y="369"/>
      <point x="335" y="369" type="curve" smooth="yes"/>
      <point x="398" y="369"/>
      <point x="438" y="338"/>
      <point x="443" y="283" type="curve" smooth="yes"/>
      <point x="449" y="212"/>
      <point x="396" y="123"/>
    </contour>
  </outline>
</glyph>
<glyph name="minus" format="2">
  <advance width="560"/>
  <unicode hex="2212"/>
  <guideline x="527" y="606" angle="0" name=""/>
  <guideline x="527" y="382" angle="0" name=""/>
  <outline>
    <contour>
      <point x="55" y="188" type="line"/>
      <point x="506" y="188" type="line"/>
      <point x="506" y="306" type="line"/>
      <point x="55" y="306" type="line"/>
    </contour>
  </outline>
</glyph>
<glyph name="radical" format="2">
  <advance width="638"/>
  <unicode hex="221A"/>
  <outline>
    <contour>
      <point x="262" y="-148" type="line"/>
      <point x="600" y="697" type="line"/>
      <point x="465" y="697" type="line"/>
      <point x="270" y="175" type="line"/>
      <point x="213" y="389" type="line"/>
      <point x="41" y="389" type="line"/>
      <point x="41" y="262" type="line"/>
      <point x="121" y="262" type="line"/>
    </contour>
  </outline>
</glyph>
<glyph name="infinity" format="2">
  <advance width="838"/>
  <unicode hex="221E"/>
  <outline>
    <contour>
      <point x="230" y="158" type="curve" smooth="yes"/>
      <point x="290" y="158"/>
      <point x="365" y="183"/>
      <point x="421" y="246" type="curve"/>
      <point x="471" y="183"/>
      <point x="546" y="158"/>
      <point x="607" y="158" type="curve" smooth="yes"/>
      <point x="737" y="158"/>
      <point x="808" y="236"/>
      <point x="808" y="348" type="curve" smooth="yes"/>
      <point x="808" y="461"/>
      <point x="737" y="539"/>
      <point x="607" y="539" type="curve" smooth="yes"/>
      <point x="548" y="539"/>
      <point x="472" y="514"/>
      <point x="421" y="450" type="curve"/>
      <point x="365" y="514"/>
      <point x="289" y="539"/>
      <point x="230" y="539" type="curve" smooth="yes"/>
      <point x="100" y="539"/>
      <point x="30" y="462"/>
      <point x="30" y="348" type="curve" smooth="yes"/>
      <point x="30" y="235"/>
      <point x="100" y="158"/>
    </contour>
    <contour>
      <point x="249" y="280" type="curve" smooth="yes"/>
      <point x="194" y="280"/>
      <point x="164" y="299"/>
      <point x="164" y="348" type="curve" smooth="yes"/>
      <point x="164" y="396"/>
      <point x="194" y="418"/>
      <point x="249" y="418" type="curve" smooth="yes"/>
      <point x="276" y="418"/>
      <point x="324" y="396"/>
      <point x="353" y="348" type="curve"/>
      <point x="325" y="301"/>
      <point x="276" y="280"/>
    </contour>
    <contour>
      <point x="587" y="280" type="curve" smooth="yes"/>
      <point x="565" y="280"/>
      <point x="517" y="294"/>
      <point x="487" y="348" type="curve"/>
      <point x="516" y="400"/>
      <point x="564" y="418"/>
      <point x="587" y="418" type="curve" smooth="yes"/>
      <point x="643" y="418"/>
      <point x="674" y="396"/>
      <point x="674" y="348" type="curve" smooth="yes"/>
      <point x="674" y="299"/>
      <point x="643" y="280"/>
    </contour>
  </outline>
</glyph>
<glyph name="integral" format="2">
  <advance width="486"/>
  <unicode hex="222B"/>
  <outline>
    <contour>
      <point x="39" y="-220" type="line"/>
      <point x="200" y="-220"/>
      <point x="313" y="-131"/>
      <point x="313" y="30" type="curve" smooth="yes"/>
      <point x="313" y="557" type="line" smooth="yes"/>
      <point x="313" y="587"/>
      <point x="326" y="591"/>
      <point x="339" y="591" type="curve" smooth="yes"/>
      <point x="349" y="591"/>
      <point x="357" y="589"/>
      <point x="372" y="578" type="curve"/>
      <point x="452" y="674" type="line"/>
      <point x="420" y="703"/>
      <point x="379" y="718"/>
      <point x="339" y="718" type="curve" smooth="yes"/>
      <point x="256" y="718"/>
      <point x="187" y="652"/>
      <point x="187" y="562" type="curve" smooth="yes"/>
      <point x="187" y="34" type="line" smooth="yes"/>
      <point x="187" y="-70"/>
      <point x="139" y="-93"/>
      <point x="39" y="-93" type="curve"/>
    </contour>
  </outline>
</glyph>
<glyph name="notequal" format="2">
  <advance width="560"/>
  <unicode hex="2260"/>
  <outline>
    <contour>
      <point x="151" y="0" type="line"/>
      <point x="210" y="0" type="line"/>
      <point x="410" y="493" type="line"/>
      <point x="351" y="493" type="line"/>
    </contour>
    <component base="equal" xOffset="37"/>
  </outline>
</glyph>
<glyph name="lozenge" format="2">
  <advance width="660"/>
  <unicode hex="25CA"/>
  <outline>
    <contour>
      <point x="232" y="0" type="line"/>
      <point x="428" y="0" type="line"/>
      <point x="618" y="348" type="line"/>
      <point x="428" y="697" type="line"/>
      <point x="232" y="697" type="line"/>
      <point x="42" y="348" type="line"/>
    </contour>
    <contour>
      <point x="325" y="78" type="line"/>
      <point x="189" y="348" type="line"/>
      <point x="325" y="619" type="line"/>
      <point x="335" y="619" type="line"/>
      <point x="469" y="348" type="line"/>
      <point x="335" y="78" type="line"/>
    </contour>
  </outline>
</glyph>
<glyph name=".notdef" format="2">
  <advance width="504"/>
  <outline>
    <contour>
      <point x="50" y="0" type="line"/>
      <point x="454" y="0" type="line"/>
      <point x="454" y="471" type="line"/>
      <point x="50" y="471" type="line"/>
    </contour>
    <contour>
      <point x="100" y="51" type="line"/>
      <point x="100" y="420" type="line"/>
      <point x="403" y="420" type="line"/>
      <point x="403" y="51" type="line"/>
    </contour>
  </outline>
</glyph>
<glyph name="brevecomb_hookabovecomb.case" format="2">
  <advance width="380"/>
  <guideline x="355" y="847" angle="0" name=""/>
  <guideline x="417" y="1021" angle="0" name=""/>
  <anchor x="190" y="697" name="_top"/>
  <anchor x="190" y="1021" name="top"/>
  <outline>
    <contour>
      <point x="190" y="737" type="curve" smooth="yes"/>
      <point x="296" y="737"/>
      <point x="349" y="779"/>
      <point x="349" y="871" type="curve"/>
      <point x="253" y="871" type="line"/>
      <point x="253" y="840"/>
      <point x="228" y="824"/>
      <point x="190" y="824" type="curve" smooth="yes"/>
      <point x="154" y="824"/>
      <point x="127" y="838"/>
      <point x="127" y="871" type="curve"/>
      <point x="31" y="871" type="line"/>
      <point x="31" y="785"/>
      <point x="78" y="737"/>
    </contour>
    <contour>
      <point x="163" y="856" type="line"/>
      <point x="217" y="862"/>
      <point x="270" y="872"/>
      <point x="270" y="924" type="curve" smooth="yes"/>
      <point x="270" y="970"/>
      <point x="227" y="995"/>
      <point x="132" y="995" type="curve" smooth="yes"/>
      <point x="117" y="995" type="line"/>
      <point x="117" y="933" type="line"/>
      <point x="132" y="933" type="line" smooth="yes"/>
      <point x="157" y="933"/>
      <point x="184" y="933"/>
      <point x="184" y="917" type="curve" smooth="yes"/>
      <point x="184" y="903"/>
      <point x="170" y="899"/>
      <point x="147" y="898" type="curve"/>
    </contour>
  </outline>
</glyph>
<glyph name="brevecomb_tildecomb" format="2">
  <advance width="383"/>
  <guideline x="427" y="837" angle="0" name=""/>
  <anchor x="190" y="493" name="_top"/>
  <anchor x="192" y="847" name="top"/>
  <outline>
    <contour>
      <point x="190" y="543" type="curve" smooth="yes"/>
      <point x="296" y="543"/>
      <point x="349" y="585"/>
      <point x="349" y="697" type="curve"/>
      <point x="253" y="697" type="line"/>
      <point x="253" y="646"/>
      <point x="228" y="630"/>
      <point x="190" y="630" type="curve" smooth="yes"/>
      <point x="154" y="630"/>
      <point x="127" y="644"/>
      <point x="127" y="697" type="curve"/>
      <point x="31" y="697" type="line"/>
      <point x="31" y="591"/>
      <point x="78" y="543"/>
    </contour>
    <contour>
      <point x="259" y="728" type="curve" smooth="yes"/>
      <point x="316" y="728"/>
      <point x="352" y="769"/>
      <point x="352" y="837" type="curve"/>
      <point x="267" y="837" type="line"/>
      <point x="267" y="818"/>
      <point x="260" y="813"/>
      <point x="249" y="813" type="curve" smooth="yes"/>
      <point x="226" y="813"/>
      <point x="198" y="847"/>
      <point x="131" y="847" type="curve" smooth="yes"/>
      <point x="72" y="847"/>
      <point x="31" y="804"/>
      <point x="31" y="737" type="curve"/>
      <point x="112" y="737" type="line"/>
      <point x="112" y="755"/>
      <point x="119" y="768"/>
      <point x="141" y="768" type="curve" smooth="yes"/>
      <point x="186" y="768"/>
      <point x="191" y="728"/>
    </contour>
  </outline>
</glyph>
<glyph name="circumflexcomb_acutecomb" format="2">
  <advance width="469"/>
  <guideline x="462" y="871" angle="0" name=""/>
  <guideline x="408" y="784" angle="0" name=""/>
  <anchor x="191" y="493" name="_top"/>
  <anchor x="191" y="784" name="top"/>
  <outline>
    <contour>
      <point x="31" y="537" type="line"/>
      <point x="150" y="537" type="line"/>
      <point x="191" y="573" type="line"/>
      <point x="232" y="537" type="line"/>
      <point x="351" y="537" type="line"/>
      <point x="191" y="700" type="line"/>
    </contour>
    <contour>
      <point x="256" y="653" type="line"/>
      <point x="345" y="653" type="line"/>
      <point x="438" y="784" type="line"/>
      <point x="316" y="784" type="line"/>
    </contour>
  </outline>
</glyph>
<glyph name="circumflexcomb_hookabovecomb.case" format="2">
  <advance width="437"/>
  <guideline x="443" y="784" angle="0" name=""/>
  <anchor x="191" y="697" name="_top"/>
  <anchor x="219" y="997" name="top"/>
  <outline>
    <contour>
      <point x="31" y="741" type="line"/>
      <point x="150" y="741" type="line"/>
      <point x="191" y="787" type="line"/>
      <point x="232" y="741" type="line"/>
      <point x="351" y="741" type="line"/>
      <point x="191" y="884" type="line"/>
    </contour>
    <contour>
      <point x="299" y="822" type="line"/>
      <point x="353" y="829"/>
      <point x="406" y="841"/>
      <point x="406" y="907" type="curve" smooth="yes"/>
      <point x="406" y="965"/>
      <point x="363" y="997"/>
      <point x="268" y="997" type="curve" smooth="yes"/>
      <point x="253" y="997" type="line"/>
      <point x="253" y="919" type="line"/>
      <point x="268" y="919" type="line" smooth="yes"/>
      <point x="293" y="919"/>
      <point x="320" y="919"/>
      <point x="320" y="898" type="curve" smooth="yes"/>
      <point x="320" y="881"/>
      <point x="306" y="876"/>
      <point x="283" y="874" type="curve"/>
    </contour>
  </outline>
</glyph>
<glyph name="circumflexcomb_tildecomb.case" format="2">
  <advance width="383"/>
  <guideline x="368" y="797" angle="0" name=""/>
  <anchor x="192" y="697" name="_top"/>
  <anchor x="192" y="998" name="top"/>
  <outline>
    <contour>
      <point x="31" y="741" type="line"/>
      <point x="150" y="741" type="line"/>
      <point x="191" y="777" type="line"/>
      <point x="232" y="741" type="line"/>
      <point x="351" y="741" type="line"/>
      <point x="191" y="864" type="line"/>
    </contour>
    <contour>
      <point x="249" y="879" type="curve" smooth="yes"/>
      <point x="316" y="879"/>
      <point x="352" y="920"/>
      <point x="352" y="988" type="curve"/>
      <point x="267" y="988" type="line"/>
      <point x="267" y="969"/>
      <point x="260" y="964"/>
      <point x="249" y="964" type="curve" smooth="yes"/>
      <point x="226" y="964"/>
      <point x="198" y="998"/>
      <point x="131" y="998" type="curve" smooth="yes"/>
      <point x="72" y="998"/>
      <point x="31" y="955"/>
      <point x="31" y="888" type="curve"/>
      <point x="112" y="888" type="line"/>
      <point x="112" y="906"/>
      <point x="119" y="919"/>
      <point x="131" y="919" type="curve" smooth="yes"/>
      <point x="156" y="919"/>
      <point x="181" y="879"/>
    </contour>
  </outline>
</glyph>
<glyph name="dieresistonos.ss03" format="2">
  <advance width="585"/>
  <anchor x="293" y="493" name="_top"/>
  <outline>
    <contour>
      <point x="320" y="568" type="line"/>
      <point x="396" y="788" type="line"/>
      <point x="280" y="812" type="line"/>
      <point x="246" y="584" type="line"/>
    </contour>
    <contour>
      <point x="116" y="537" type="curve" smooth="yes"/>
      <point x="164" y="537"/>
      <point x="201" y="575"/>
      <point x="201" y="623" type="curve" smooth="yes"/>
      <point x="201" y="671"/>
      <point x="164" y="708"/>
      <point x="116" y="708" type="curve" smooth="yes"/>
      <point x="68" y="708"/>
      <point x="31" y="671"/>
      <point x="31" y="623" type="curve" smooth="yes"/>
      <point x="31" y="575"/>
      <point x="69" y="537"/>
    </contour>
    <contour>
      <point x="469" y="537" type="curve" smooth="yes"/>
      <point x="517" y="537"/>
      <point x="554" y="575"/>
      <point x="554" y="623" type="curve" smooth="yes"/>
      <point x="554" y="671"/>
      <point x="517" y="708"/>
      <point x="469" y="708" type="curve" smooth="yes"/>
      <point x="421" y="708"/>
      <point x="384" y="671"/>
      <point x="384" y="623" type="curve" smooth="yes"/>
      <point x="384" y="575"/>
      <point x="422" y="537"/>
    </contour>
  </outline>
</glyph>
<glyph name="dotaccent.ss03" format="2">
  <advance width="232"/>
  <anchor x="116" y="493" name="_top"/>
  <anchor x="116" y="708" name="top"/>
  <outline>
    <contour>
      <point x="116" y="537" type="curve" smooth="yes"/>
      <point x="164" y="537"/>
      <point x="201" y="575"/>
      <point x="201" y="623" type="curve" smooth="yes"/>
      <point x="201" y="671"/>
      <point x="164" y="708"/>
      <point x="116" y="708" type="curve" smooth="yes"/>
      <point x="68" y="708"/>
      <point x="31" y="671"/>
      <point x="31" y="623" type="curve" smooth="yes"/>
      <point x="31" y="575"/>
      <point x="69" y="537"/>
    </contour>
  </outline>
</glyph>
<glyph name="dotbelowcomb.ss03" format="2">
  <advance width="222"/>
  <anchor x="111" y="0" name="_bottom"/>
  <anchor x="111" y="-204" name="bottom"/>
  <outline>
    <contour>
      <point x="111" y="-204" type="curve" smooth="yes"/>
      <point x="156" y="-204"/>
      <point x="191" y="-168"/>
      <point x="191" y="-123" type="curve" smooth="yes"/>
      <point x="191" y="-78"/>
      <point x="156" y="-43"/>
      <point x="111" y="-43" type="curve" smooth="yes"/>
      <point x="66" y="-43"/>
      <point x="31" y="-78"/>
      <point x="31" y="-123" type="curve" smooth="yes"/>
      <point x="31" y="-168"/>
      <point x="67" y="-204"/>
    </contour>
  </outline>
</glyph>
<glyph name="eight.lf" format="2">
  <advance width="632"/>
  <outline>
    <contour>
      <point x="316" y="-11" type="curve" smooth="yes"/>
      <point x="459" y="-11"/>
      <point x="587" y="62"/>
      <point x="587" y="211" type="curve" smooth="yes"/>
      <point x="587" y="279"/>
      <point x="562" y="338"/>
      <point x="503" y="379" type="curve"/>
      <point x="536" y="409"/>
      <point x="554" y="446"/>
      <point x="554" y="500" type="curve" smooth="yes"/>
      <point x="554" y="630"/>
      <point x="442" y="708"/>
      <point x="316" y="708" type="curve" smooth="yes"/>
      <point x="190" y="708"/>
      <point x="76" y="630"/>
      <point x="76" y="500" type="curve" smooth="yes"/>
      <point x="76" y="446"/>
      <point x="96" y="409"/>
      <point x="129" y="379" type="curve"/>
      <point x="70" y="338"/>
      <point x="45" y="279"/>
      <point x="45" y="211" type="curve" smooth="yes"/>
      <point x="45" y="62"/>
      <point x="173" y="-11"/>
    </contour>
    <contour>
      <point x="316" y="132" type="curve" smooth="yes"/>
      <point x="245" y="132"/>
      <point x="196" y="164"/>
      <point x="196" y="226" type="curve" smooth="yes"/>
      <point x="196" y="288"/>
      <point x="246" y="319"/>
      <point x="316" y="319" type="curve" smooth="yes"/>
      <point x="386" y="319"/>
      <point x="436" y="288"/>
      <point x="436" y="226" type="curve" smooth="yes"/>
      <point x="436" y="164"/>
      <point x="387" y="132"/>
    </contour>
    <contour>
      <point x="316" y="421" type="curve" smooth="yes"/>
      <point x="263" y="421"/>
      <point x="227" y="447"/>
      <point x="227" y="490" type="curve" smooth="yes"/>
      <point x="227" y="535"/>
      <point x="260" y="564"/>
      <point x="316" y="564" type="curve" smooth="yes"/>
      <point x="372" y="564"/>
      <point x="405" y="535"/>
      <point x="405" y="490" type="curve" smooth="yes"/>
      <point x="405" y="447"/>
      <point x="369" y="421"/>
    </contour>
  </outline>
</glyph>
<glyph name="exclam.ss03" format="2">
  <advance width="271"/>
  <outline>
    <contour>
      <point x="78" y="219" type="line"/>
      <point x="192" y="219" type="line"/>
      <point x="210" y="697" type="line"/>
      <point x="61" y="697" type="line"/>
    </contour>
    <contour>
      <point x="135" y="-11" type="curve" smooth="yes"/>
      <point x="184" y="-11"/>
      <point x="220" y="27"/>
      <point x="220" y="76" type="curve" smooth="yes"/>
      <point x="220" y="124"/>
      <point x="184" y="161"/>
      <point x="135" y="161" type="curve" smooth="yes"/>
      <point x="86" y="161"/>
      <point x="50" y="124"/>
      <point x="50" y="76" type="curve" smooth="yes"/>
      <point x="50" y="27"/>
      <point x="88" y="-11"/>
    </contour>
  </outline>
</glyph>
<glyph name="f_f_i" format="2">
  <advance width="892"/>
  <anchor x="317" y="0" name="caret_1"/>
  <anchor x="617" y="0" name="caret_2"/>
  <outline>
    <contour>
      <point x="92" y="0" type="line"/>
      <point x="242" y="0" type="line"/>
      <point x="242" y="376" type="line"/>
      <point x="391" y="376" type="line"/>
      <point x="391" y="0" type="line"/>
      <point x="541" y="0" type="line"/>
      <point x="541" y="376" type="line"/>
      <point x="690" y="376" type="line"/>
      <point x="690" y="0" type="line"/>
      <point x="840" y="0" type="line"/>
      <point x="840" y="493" type="line"/>
      <point x="541" y="493" type="line"/>
      <point x="541" y="522" type="line" smooth="yes"/>
      <point x="541" y="553"/>
      <point x="564" y="587"/>
      <point x="625" y="587" type="curve" smooth="yes"/>
      <point x="681" y="587"/>
      <point x="725" y="572"/>
      <point x="762" y="548" type="curve"/>
      <point x="832" y="655" type="line"/>
      <point x="770" y="691"/>
      <point x="710" y="708"/>
      <point x="618" y="708" type="curve" smooth="yes"/>
      <point x="561" y="708"/>
      <point x="507" y="692"/>
      <point x="467" y="663" type="curve"/>
      <point x="421" y="695"/>
      <point x="363" y="708"/>
      <point x="312" y="708" type="curve" smooth="yes"/>
      <point x="197" y="708"/>
      <point x="92" y="642"/>
      <point x="92" y="522" type="curve" smooth="yes"/>
      <point x="92" y="493" type="line"/>
      <point x="10" y="493" type="line"/>
      <point x="10" y="376" type="line"/>
      <point x="92" y="376" type="line"/>
    </contour>
    <contour>
      <point x="242" y="493" type="line"/>
      <point x="242" y="519" type="line" smooth="yes"/>
      <point x="242" y="559"/>
      <point x="262" y="587"/>
      <point x="319" y="587" type="curve" smooth="yes"/>
      <point x="352" y="587"/>
      <point x="378" y="578"/>
      <point x="395" y="569" type="curve"/>
      <point x="395" y="567"/>
      <point x="391" y="538"/>
      <point x="391" y="525" type="curve" smooth="yes"/>
      <point x="391" y="493" type="line"/>
    </contour>
  </outline>
</glyph>
<glyph name="f_f_l" format="2">
  <advance width="924"/>
  <anchor x="317" y="0" name="caret_1"/>
  <anchor x="616" y="0" name="caret_2"/>
  <outline>
    <contour>
      <point x="816" y="-11" type="curve" smooth="yes"/>
      <point x="837" y="-11"/>
      <point x="871" y="-7"/>
      <point x="900" y="5" type="curve"/>
      <point x="900" y="133" type="line"/>
      <point x="887" y="129"/>
      <point x="877" y="127"/>
      <point x="868" y="127" type="curve" smooth="yes"/>
      <point x="849" y="127"/>
      <point x="840" y="136"/>
      <point x="840" y="161" type="curve" smooth="yes"/>
      <point x="840" y="651" type="line"/>
      <point x="773" y="689"/>
      <point x="715" y="708"/>
      <point x="618" y="708" type="curve" smooth="yes"/>
      <point x="562" y="708"/>
      <point x="506" y="692"/>
      <point x="465" y="664" type="curve"/>
      <point x="422" y="694"/>
      <point x="364" y="708"/>
      <point x="312" y="708" type="curve" smooth="yes"/>
      <point x="197" y="708"/>
      <point x="92" y="642"/>
      <point x="92" y="522" type="curve" smooth="yes"/>
      <point x="92" y="493" type="line"/>
      <point x="10" y="493" type="line"/>
      <point x="10" y="376" type="line"/>
      <point x="92" y="376" type="line"/>
      <point x="92" y="0" type="line"/>
      <point x="242" y="0" type="line"/>
      <point x="242" y="376" type="line"/>
      <point x="391" y="376" type="line"/>
      <point x="391" y="0" type="line"/>
      <point x="541" y="0" type="line"/>
      <point x="541" y="376" type="line"/>
      <point x="624" y="376" type="line"/>
      <point x="624" y="493" type="line"/>
      <point x="541" y="493" type="line"/>
      <point x="541" y="522" type="line" smooth="yes"/>
      <point x="541" y="553"/>
      <point x="564" y="587"/>
      <point x="625" y="587" type="curve" smooth="yes"/>
      <point x="646" y="587"/>
      <point x="664" y="586"/>
      <point x="690" y="579" type="curve"/>
      <point x="690" y="125" type="line" smooth="yes"/>
      <point x="690" y="30"/>
      <point x="747" y="-11"/>
    </contour>
    <contour>
      <point x="242" y="493" type="line"/>
      <point x="242" y="509" type="line" smooth="yes"/>
      <point x="242" y="559"/>
      <point x="262" y="587"/>
      <point x="319" y="587" type="curve" smooth="yes"/>
      <point x="352" y="587"/>
      <point x="377" y="578"/>
      <point x="394" y="569" type="curve"/>
      <point x="392" y="549"/>
      <point x="391" y="537"/>
      <point x="391" y="525" type="curve" smooth="yes"/>
      <point x="391" y="493" type="line"/>
    </contour>
  </outline>
</glyph>
<glyph name="five.numr" format="2">
  <advance width="368"/>
  <outline>
    <contour>
      <point x="182" y="272" type="curve" smooth="yes"/>
      <point x="276" y="272"/>
      <point x="342" y="348"/>
      <point x="342" y="428" type="curve" smooth="yes"/>
      <point x="342" y="504"/>
      <point x="282" y="573"/>
      <point x="194" y="573" type="curve" smooth="yes"/>
      <point x="172" y="573"/>
      <point x="141" y="571"/>
      <point x="110" y="539" type="curve"/>
      <point x="134" y="529" type="line"/>
      <point x="157" y="646" type="line"/>
      <point x="114" y="608" type="line"/>
      <point x="324" y="608" type="line"/>
      <point x="324" y="697" type="line"/>
      <point x="78" y="697" type="line"/>
      <point x="35" y="473" type="line"/>
      <point x="126" y="451" type="line"/>
      <point x="133" y="464"/>
      <point x="149" y="480"/>
      <point x="180" y="480" type="curve" smooth="yes"/>
      <point x="225" y="480"/>
      <point x="236" y="452"/>
      <point x="236" y="428" type="curve" smooth="yes"/>
      <point x="236" y="402"/>
      <point x="224" y="367"/>
      <point x="180" y="367" type="curve" smooth="yes"/>
      <point x="138" y="367"/>
      <point x="121" y="398"/>
      <point x="120" y="420" type="curve"/>
      <point x="23" y="403" type="line"/>
      <point x="31" y="331"/>
      <point x="97" y="272"/>
    </contour>
  </outline>
</glyph>
<glyph name="four.dnom" format="2">
  <advance width="371"/>
  <outline>
    <contour>
      <point x="196" y="0" type="line"/>
      <point x="287" y="0" type="line"/>
      <point x="287" y="98" type="line"/>
      <point x="353" y="98" type="line"/>
      <point x="353" y="175" type="line"/>
      <point x="287" y="175" type="line"/>
      <point x="287" y="418" type="line"/>
      <point x="197" y="418" type="line"/>
      <point x="21" y="179" type="line"/>
      <point x="21" y="98" type="line"/>
      <point x="196" y="98" type="line"/>
    </contour>
    <contour>
      <point x="78" y="157" type="line"/>
      <point x="209" y="333" type="line"/>
      <point x="199" y="335" type="line"/>
      <point x="199" y="175" type="line"/>
      <point x="70" y="175" type="line"/>
    </contour>
  </outline>
</glyph>
<glyph name="four.numr" format="2">
  <advance width="371"/>
  <outline>
    <contour>
      <point x="196" y="279" type="line"/>
      <point x="287" y="279" type="line"/>
      <point x="287" y="377" type="line"/>
      <point x="353" y="377" type="line"/>
      <point x="353" y="467" type="line"/>
      <point x="287" y="467" type="line"/>
      <point x="287" y="697" type="line"/>
      <point x="197" y="697" type="line"/>
      <point x="21" y="458" type="line"/>
      <point x="21" y="377" type="line"/>
      <point x="196" y="377" type="line"/>
    </contour>
    <contour>
      <point x="78" y="436" type="line"/>
      <point x="209" y="612" type="line"/>
      <point x="199" y="614" type="line"/>
      <point x="199" y="467" type="line"/>
      <point x="70" y="467" type="line"/>
    </contour>
  </outline>
</glyph>
<glyph name="g.ss01" format="2">
  <advance width="567"/>
  <guideline x="408" y="-204" angle="0" name=""/>
  <guideline x="69" y="262" angle="90" name=""/>
  <anchor x="269" y="-215" name="bottom"/>
  <anchor x="283" y="493" name="top"/>
  <outline>
    <contour>
      <point x="269" y="-215" type="curve" smooth="yes"/>
      <point x="414" y="-215"/>
      <point x="512" y="-144"/>
      <point x="512" y="15" type="curve" smooth="yes"/>
      <point x="512" y="493" type="line"/>
      <point x="362" y="493" type="line"/>
      <point x="362" y="402" type="line"/>
      <point x="377" y="422" type="line"/>
      <point x="351" y="475"/>
      <point x="306" y="504"/>
      <point x="235" y="504" type="curve" smooth="yes"/>
      <point x="124" y="504"/>
      <point x="31" y="412"/>
      <point x="31" y="257" type="curve" smooth="yes"/>
      <point x="31" y="119"/>
      <point x="108" y="9"/>
      <point x="235" y="9" type="curve" smooth="yes"/>
      <point x="299" y="9"/>
      <point x="347" y="27"/>
      <point x="381" y="93" type="curve"/>
      <point x="362" y="108" type="line"/>
      <point x="362" y="15" type="line" smooth="yes"/>
      <point x="362" y="-72"/>
      <point x="309" y="-86"/>
      <point x="268" y="-86" type="curve" smooth="yes"/>
      <point x="210" y="-86"/>
      <point x="181" y="-48"/>
      <point x="160" y="-18" type="curve"/>
      <point x="43" y="-110" type="line"/>
      <point x="85" y="-163"/>
      <point x="148" y="-215"/>
    </contour>
    <contour>
      <point x="278" y="150" type="curve" smooth="yes"/>
      <point x="215" y="150"/>
      <point x="182" y="190"/>
      <point x="182" y="255" type="curve" smooth="yes"/>
      <point x="182" y="322"/>
      <point x="218" y="366"/>
      <point x="279" y="366" type="curve" smooth="yes"/>
      <point x="340" y="366"/>
      <point x="376" y="321"/>
      <point x="376" y="255" type="curve" smooth="yes"/>
      <point x="376" y="191"/>
      <point x="341" y="150"/>
    </contour>
  </outline>
</glyph>
<glyph name="g.ss02" format="2">
  <advance width="549"/>
  <guideline x="410" y="-204" angle="0" name=""/>
  <anchor x="275" y="-205" name="bottom"/>
  <anchor x="281" y="493" name="top"/>
  <outline>
    <contour>
      <point x="275" y="-214" type="curve" smooth="yes"/>
      <point x="438" y="-214"/>
      <point x="521" y="-158"/>
      <point x="521" y="-46" type="curve" smooth="yes"/>
      <point x="521" y="46"/>
      <point x="467" y="93"/>
      <point x="355" y="93" type="curve" smooth="yes"/>
      <point x="257" y="93" type="line" smooth="yes"/>
      <point x="226" y="93"/>
      <point x="173" y="93"/>
      <point x="173" y="122" type="curve" smooth="yes"/>
      <point x="173" y="139"/>
      <point x="190" y="157"/>
      <point x="208" y="158" type="curve"/>
      <point x="137" y="256" type="line"/>
      <point x="69" y="213"/>
      <point x="32" y="162"/>
      <point x="32" y="103" type="curve" smooth="yes"/>
      <point x="32" y="1"/>
      <point x="145" y="-32"/>
      <point x="156" y="-32" type="curve" smooth="yes"/>
      <point x="333" y="-32" type="line" smooth="yes"/>
      <point x="363" y="-32"/>
      <point x="376" y="-41"/>
      <point x="376" y="-63" type="curve" smooth="yes"/>
      <point x="376" y="-89"/>
      <point x="352" y="-100"/>
      <point x="276" y="-100" type="curve" smooth="yes"/>
      <point x="199" y="-100"/>
      <point x="167" y="-89"/>
      <point x="167" y="-63" type="curve" smooth="yes"/>
      <point x="167" y="-59" type="line"/>
      <point x="212" y="-24" type="line"/>
      <point x="137" y="36" type="line"/>
      <point x="36" y="-18" type="line"/>
      <point x="30" y="-31"/>
      <point x="26" y="-48"/>
      <point x="26" y="-68" type="curve" smooth="yes"/>
      <point x="26" y="-186"/>
      <point x="159" y="-214"/>
    </contour>
    <contour>
      <point x="279" y="127" type="curve" smooth="yes"/>
      <point x="403" y="127"/>
      <point x="487" y="199"/>
      <point x="487" y="309" type="curve" smooth="yes"/>
      <point x="487" y="429"/>
      <point x="386" y="504"/>
      <point x="274" y="504" type="curve" smooth="yes"/>
      <point x="161" y="504"/>
      <point x="63" y="429"/>
      <point x="63" y="314" type="curve" smooth="yes"/>
      <point x="63" y="206"/>
      <point x="149" y="127"/>
    </contour>
    <contour>
      <point x="276" y="245" type="curve" smooth="yes"/>
      <point x="231" y="245"/>
      <point x="214" y="277"/>
      <point x="214" y="314" type="curve" smooth="yes"/>
      <point x="214" y="352"/>
      <point x="236" y="379"/>
      <point x="276" y="379" type="curve" smooth="yes"/>
      <point x="315" y="379"/>
      <point x="337" y="353"/>
      <point x="337" y="314" type="curve" smooth="yes"/>
      <point x="337" y="277"/>
      <point x="320" y="245"/>
    </contour>
    <contour>
      <point x="454" y="381" type="line"/>
      <point x="543" y="452" type="line"/>
      <point x="466" y="545" type="line"/>
      <point x="345" y="450" type="line"/>
    </contour>
  </outline>
</glyph>
<glyph name="nine.lf" format="2">
  <advance width="601"/>
  <outline>
    <contour>
      <point x="144" y="0" type="line"/>
      <point x="318" y="0" type="line"/>
      <point x="525" y="326" type="line" smooth="yes"/>
      <point x="551" y="367"/>
      <point x="565" y="414"/>
      <point x="565" y="460" type="curve" smooth="yes"/>
      <point x="565" y="606"/>
      <point x="445" y="708"/>
      <point x="300" y="708" type="curve" smooth="yes"/>
      <point x="157" y="708"/>
      <point x="37" y="607"/>
      <point x="37" y="459" type="curve" smooth="yes"/>
      <point x="37" y="323"/>
      <point x="141" y="220"/>
      <point x="279" y="220" type="curve" smooth="yes"/>
      <point x="296" y="220"/>
      <point x="314" y="222"/>
      <point x="332" y="225" type="curve"/>
      <point x="313" y="249" type="line"/>
    </contour>
    <contour>
      <point x="300" y="353" type="curve" smooth="yes"/>
      <point x="238" y="353"/>
      <point x="190" y="392"/>
      <point x="190" y="459" type="curve" smooth="yes"/>
      <point x="190" y="526"/>
      <point x="239" y="564"/>
      <point x="300" y="564" type="curve" smooth="yes"/>
      <point x="362" y="564"/>
      <point x="411" y="526"/>
      <point x="411" y="459" type="curve" smooth="yes"/>
      <point x="411" y="391"/>
      <point x="362" y="353"/>
    </contour>
  </outline>
</glyph>
<glyph name="nine.numr" format="2">
  <advance width="363"/>
  <outline>
    <contour>
      <point x="79" y="279" type="line"/>
      <point x="195" y="279" type="line"/>
      <point x="319" y="471" type="line" smooth="yes"/>
      <point x="334" y="494"/>
      <point x="343" y="528"/>
      <point x="343" y="553" type="curve" smooth="yes"/>
      <point x="343" y="642"/>
      <point x="269" y="704"/>
      <point x="181" y="704" type="curve" smooth="yes"/>
      <point x="94" y="704"/>
      <point x="20" y="643"/>
      <point x="20" y="552" type="curve" smooth="yes"/>
      <point x="20" y="470"/>
      <point x="84" y="408"/>
      <point x="166" y="408" type="curve" smooth="yes"/>
      <point x="175" y="408"/>
      <point x="183" y="408"/>
      <point x="192" y="408" type="curve"/>
      <point x="180" y="423" type="line"/>
    </contour>
    <contour>
      <point x="181" y="496" type="curve" smooth="yes"/>
      <point x="148" y="496"/>
      <point x="121" y="515"/>
      <point x="121" y="552" type="curve" smooth="yes"/>
      <point x="121" y="589"/>
      <point x="148" y="608"/>
      <point x="181" y="608" type="curve" smooth="yes"/>
      <point x="214" y="608"/>
      <point x="242" y="589"/>
      <point x="242" y="552" type="curve" smooth="yes"/>
      <point x="242" y="515"/>
      <point x="215" y="496"/>
    </contour>
  </outline>
</glyph>
<glyph name="one.dnom" format="2">
  <advance width="274"/>
  <outline>
    <contour>
      <point x="114" y="0" type="line"/>
      <point x="214" y="0" type="line"/>
      <point x="214" y="418" type="line"/>
      <point x="114" y="418" type="line"/>
      <point x="10" y="355" type="line"/>
      <point x="10" y="263" type="line"/>
      <point x="114" y="323" type="line"/>
    </contour>
  </outline>
</glyph>
<glyph name="one.numr" format="2">
  <advance width="294"/>
  <outline>
    <contour>
      <point x="114" y="279" type="line"/>
      <point x="214" y="279" type="line"/>
      <point x="214" y="697" type="line"/>
      <point x="114" y="697" type="line"/>
      <point x="10" y="634" type="line"/>
      <point x="10" y="543" type="line"/>
      <point x="114" y="603" type="line"/>
    </contour>
  </outline>
</glyph>
<glyph name="seven.dnom" format="2">
  <advance width="336"/>
  <outline>
    <contour>
      <point x="41" y="0" type="line"/>
      <point x="152" y="0" type="line"/>
      <point x="321" y="347" type="line"/>
      <point x="321" y="418" type="line"/>
      <point x="17" y="418" type="line"/>
      <point x="17" y="325" type="line"/>
      <point x="250" y="325" type="line"/>
      <point x="222" y="366" type="line"/>
    </contour>
  </outline>
</glyph>
<glyph name="seven.numr" format="2">
  <advance width="336"/>
  <outline>
    <contour>
      <point x="41" y="279" type="line"/>
      <point x="152" y="279" type="line"/>
      <point x="321" y="626" type="line"/>
      <point x="321" y="697" type="line"/>
      <point x="17" y="697" type="line"/>
      <point x="17" y="604" type="line"/>
      <point x="250" y="604" type="line"/>
      <point x="222" y="645" type="line"/>
    </contour>
  </outline>
</glyph>
<glyph name="slashlongcomb.case" format="2">
  <advance width="710"/>
  <anchor x="355" y="349" name="_center"/>
  <outline>
    <contour>
      <point x="71" y="52" type="line"/>
      <point x="134" y="0" type="line"/>
      <point x="637" y="646" type="line"/>
      <point x="577" y="697" type="line"/>
    </contour>
  </outline>
</glyph>
<glyph name="slashshortcomb.case" format="2">
  <advance width="356"/>
  <anchor x="178" y="289" name="_center"/>
  <outline>
    <contour>
      <point x="31" y="96" type="line"/>
      <point x="325" y="330" type="line"/>
      <point x="325" y="483" type="line"/>
      <point x="31" y="251" type="line"/>
    </contour>
  </outline>
</glyph>
<glyph name="three.lf" format="2">
  <advance width="615"/>
  <outline>
    <contour>
      <point x="305" y="-10" type="curve" smooth="yes"/>
      <point x="464" y="-10"/>
      <point x="572" y="83"/>
      <point x="572" y="219" type="curve" smooth="yes"/>
      <point x="572" y="294"/>
      <point x="534" y="351"/>
      <point x="464" y="381" type="curve"/>
      <point x="507" y="409"/>
      <point x="531" y="456"/>
      <point x="531" y="512" type="curve" smooth="yes"/>
      <point x="531" y="627"/>
      <point x="440" y="707"/>
      <point x="309" y="707" type="curve" smooth="yes"/>
      <point x="169" y="707"/>
      <point x="68" y="617"/>
      <point x="68" y="493" type="curve"/>
      <point x="217" y="483" type="line"/>
      <point x="218" y="533"/>
      <point x="250" y="563"/>
      <point x="304" y="563" type="curve" smooth="yes"/>
      <point x="352" y="563"/>
      <point x="380" y="539"/>
      <point x="380" y="496" type="curve" smooth="yes"/>
      <point x="380" y="446"/>
      <point x="344" y="422"/>
      <point x="272" y="422" type="curve"/>
      <point x="272" y="304" type="line"/>
      <point x="376" y="304"/>
      <point x="421" y="279"/>
      <point x="421" y="220" type="curve" smooth="yes"/>
      <point x="421" y="165"/>
      <point x="381" y="134"/>
      <point x="310" y="134" type="curve" smooth="yes"/>
      <point x="236" y="134"/>
      <point x="188" y="174"/>
      <point x="188" y="236" type="curve"/>
      <point x="38" y="227" type="line"/>
      <point x="38" y="85"/>
      <point x="145" y="-10"/>
    </contour>
  </outline>
</glyph>
<glyph name="tildecomb.case" format="2">
  <advance width="405"/>
  <guideline x="365" y="871" angle="0" name=""/>
  <guideline x="367" y="741" angle="0" name=""/>
  <anchor x="203" y="697" name="_top"/>
  <anchor x="203" y="903" name="top"/>
  <outline>
    <contour>
      <point x="262" y="741" type="curve" smooth="yes"/>
      <point x="331" y="741"/>
      <point x="374" y="786"/>
      <point x="374" y="871" type="curve"/>
      <point x="284" y="871" type="line"/>
      <point x="284" y="837"/>
      <point x="275" y="821"/>
      <point x="264" y="821" type="curve" smooth="yes"/>
      <point x="240" y="821"/>
      <point x="210" y="873"/>
      <point x="145" y="873" type="curve" smooth="yes"/>
      <point x="75" y="873"/>
      <point x="31" y="825"/>
      <point x="31" y="741" type="curve"/>
      <point x="117" y="741" type="line"/>
      <point x="117" y="776"/>
      <point x="125" y="792"/>
      <point x="138" y="792" type="curve" smooth="yes"/>
      <point x="165" y="792"/>
      <point x="187" y="741"/>
    </contour>
  </outline>
</glyph>
<glyph name="two.dnom" format="2">
  <advance width="353"/>
  <outline>
    <contour>
      <point x="29" y="0" type="line"/>
      <point x="328" y="0" type="line"/>
      <point x="328" y="93" type="line"/>
      <point x="135" y="93" type="line"/>
      <point x="108" y="50" type="line"/>
      <point x="237" y="98"/>
      <point x="312" y="184"/>
      <point x="312" y="284" type="curve" smooth="yes"/>
      <point x="312" y="367"/>
      <point x="253" y="423"/>
      <point x="175" y="423" type="curve" smooth="yes"/>
      <point x="76" y="423"/>
      <point x="23" y="336"/>
      <point x="23" y="263" type="curve"/>
      <point x="120" y="256" type="line"/>
      <point x="123" y="283"/>
      <point x="130" y="326"/>
      <point x="173" y="326" type="curve" smooth="yes"/>
      <point x="203" y="326"/>
      <point x="213" y="304"/>
      <point x="213" y="281" type="curve" smooth="yes"/>
      <point x="213" y="195"/>
      <point x="85" y="109"/>
      <point x="29" y="72" type="curve"/>
    </contour>
  </outline>
</glyph>
<glyph name="zero.lf" format="2">
  <advance width="604"/>
  <outline>
    <contour>
      <point x="302" y="-10" type="curve" smooth="yes"/>
      <point x="535" y="-10"/>
      <point x="555" y="212"/>
      <point x="555" y="353" type="curve" smooth="yes"/>
      <point x="555" y="484"/>
      <point x="538" y="709"/>
      <point x="302" y="709" type="curve" smooth="yes"/>
      <point x="67" y="709"/>
      <point x="49" y="486"/>
      <point x="49" y="353" type="curve" smooth="yes"/>
      <point x="49" y="212"/>
      <point x="69" y="-10"/>
    </contour>
    <contour>
      <point x="302" y="134" type="curve" smooth="yes"/>
      <point x="214" y="134"/>
      <point x="203" y="235"/>
      <point x="203" y="348" type="curve" smooth="yes"/>
      <point x="203" y="466"/>
      <point x="214" y="564"/>
      <point x="302" y="564" type="curve" smooth="yes"/>
      <point x="390" y="564"/>
      <point x="401" y="466"/>
      <point x="401" y="348" type="curve" smooth="yes"/>
      <point x="401" y="235"/>
      <point x="390" y="134"/>
    </contour>
  </outline>
</glyph>
